<svg width="31" height="92" viewBox="0 0 31 92" fill="none" xmlns="http://www.w3.org/2000/svg">
<path d="M0.370275 32.5C0.203608 40.6667 -0.0297253 58 0.370275 62H30.8701V0C29.7035 5 24.5701 15.4 13.3701 17C2.17012 18.6 0.0368889 28 0.370275 32.5Z" fill="#5865F2"/>
<path d="M0.0929666 59C-0.0752153 50.8333 -0.0335194 33.5 0.370117 29.5L30.8701 29.5L30.8701 91.5C29.6928 86.5 24.5128 76.1 13.211 74.5C1.90917 72.9 -0.24345 63.5 0.0929666 59Z" fill="#5865F2"/>
<path d="M21.0848 42.5114C20.0617 42.0327 18.9794 41.6926 17.8664 41.5C17.7278 41.7506 17.5658 42.0877 17.4541 42.3559C16.2541 42.1755 15.0652 42.1755 13.8873 42.3559C13.7756 42.0878 13.61 41.7506 13.4701 41.5C12.356 41.6927 11.2728 42.0337 10.2492 42.5139C8.21246 45.5918 7.66031 48.5931 7.93635 51.552C9.28728 52.5608 10.5965 53.1737 11.8836 53.5747C12.2035 53.1348 12.4862 52.6691 12.729 52.1823C12.2668 52.0064 11.8213 51.7896 11.3977 51.5345C11.5092 51.4518 11.618 51.3657 11.7241 51.2763C14.2909 52.4768 17.0799 52.4768 19.6161 51.2763C19.7226 51.3651 19.8314 51.4512 19.9424 51.5345C19.5182 51.7902 19.0718 52.0075 18.6088 52.1836C18.8529 52.6723 19.1351 53.1385 19.4541 53.5759C20.7425 53.1749 22.0529 52.5621 23.4038 51.552C23.7278 48.122 22.8505 45.1481 21.0848 42.5113V42.5114ZM13.0787 49.7323C12.3081 49.7323 11.6762 49.013 11.6762 48.137C11.6762 47.261 12.2947 46.5404 13.0787 46.5404C13.8628 46.5404 14.4946 47.2597 14.4812 48.137C14.4824 49.013 13.8628 49.7323 13.0787 49.7323ZM18.2615 49.7323C17.4909 49.7323 16.8591 49.013 16.8591 48.137C16.8591 47.261 17.4775 46.5404 18.2615 46.5404C19.0456 46.5404 19.6774 47.2597 19.664 48.137C19.664 49.013 19.0456 49.7323 18.2615 49.7323Z" fill="white"/>
</svg>
