<svg width="41" height="40" viewBox="0 0 41 40" fill="none" xmlns="http://www.w3.org/2000/svg">
<path d="M28.5352 14.5578L29.9719 13.1773V12.875H24.9961L21.45 21.7438L17.4165 12.875H12.1993V13.1773L13.8774 15.207C14.0415 15.357 14.1258 15.5773 14.1047 15.7977V23.7734C14.1563 24.0617 14.0649 24.3547 13.8633 24.5633L11.9719 26.8672V27.1648H17.3297V26.8625L15.4407 24.5656C15.3395 24.4629 15.2633 24.3381 15.2182 24.2011C15.1731 24.0641 15.1602 23.9186 15.1805 23.7758V16.8758L19.8844 27.1695H20.4305L24.4758 16.8758V25.0766C24.4758 25.2922 24.4758 25.3367 24.3352 25.4797L22.8797 26.893V27.1953H29.9391V26.893L28.5352 25.5125C28.4133 25.4188 28.35 25.2617 28.3758 25.1094V14.9609C28.3637 14.8856 28.3721 14.8084 28.4001 14.7375C28.4282 14.6665 28.4748 14.6045 28.5352 14.5578Z" fill="#E0E0E0"/>
</svg>
