<svg width="113" height="39" viewBox="0 0 113 39" fill="none" xmlns="http://www.w3.org/2000/svg">
<g clip-path="url(#clip0)">
<path fill-rule="evenodd" clip-rule="evenodd" d="M23.4731 1.79576C21.0787 -0.598646 17.1966 -0.598647 14.8022 1.79576L1.79586 14.8021C-0.598543 17.1965 -0.598544 21.0786 1.79586 23.473L14.8022 36.4794C17.1966 38.8738 21.0787 38.8738 23.4731 36.4794L36.4795 23.473C38.8739 21.0786 38.8739 17.1965 36.4795 14.8021L23.4731 1.79576ZM13.8351 20.4023C13.8326 20.8499 13.8403 21.3001 13.8869 21.7476C13.8948 21.8204 13.9048 21.8932 13.9147 21.9656L13.9147 21.9657L13.9147 21.9658C13.9242 22.0349 13.9336 22.1038 13.9412 22.172C13.904 22.1968 13.8667 22.1951 13.8295 22.1935C13.8201 22.1931 13.8108 22.1926 13.8015 22.1926H12.2052C12.1983 22.1926 12.1914 22.1924 12.1845 22.1921C12.1707 22.1915 12.1569 22.1909 12.1431 22.1926C12.0758 22.2004 12.0551 22.1668 12.0525 22.1021C12.0479 21.9691 12.0405 21.837 12.0331 21.7048L12.0331 21.7047L12.0331 21.7046C12.0281 21.6157 12.0231 21.5266 12.0189 21.4372C12.0172 21.402 12.0177 21.3667 12.0183 21.3273C12.0186 21.3059 12.0189 21.2832 12.0189 21.2587C11.954 21.281 11.9304 21.3208 11.9083 21.3581C11.9022 21.3684 11.8963 21.3785 11.8895 21.388C11.6282 21.7606 11.3074 22.0555 10.8702 22.2108C10.5985 22.3091 10.3165 22.3453 10.0319 22.3375C9.61796 22.3272 9.21177 22.2573 8.83403 22.071C8.29589 21.8071 7.96214 21.3906 7.86382 20.793C7.85606 20.7464 7.8483 20.6998 7.8069 20.6688V20.2031C7.85267 20.1791 7.85805 20.1349 7.86325 20.0922L7.86444 20.0826L7.86641 20.0685C7.95955 19.5226 8.26484 19.1242 8.7383 18.8525C9.11086 18.6378 9.51965 18.5265 9.94136 18.4645C10.552 18.3739 11.1651 18.3661 11.7783 18.4567C11.9025 18.4748 11.9128 18.467 11.8999 18.3403C11.8637 17.9884 11.7033 17.7245 11.3747 17.5744C11.2195 17.502 11.0539 17.458 10.8831 17.4451C10.2104 17.3959 9.55069 17.4632 8.922 17.7245C8.86994 17.747 8.81942 17.7711 8.76918 17.795C8.72702 17.815 8.68507 17.835 8.64258 17.8539C8.60588 17.8335 8.60935 17.8035 8.61246 17.7764C8.6133 17.7692 8.61412 17.7621 8.61412 17.7556L8.61333 17.7265L8.61333 17.7264L8.61333 17.7263C8.60324 17.3533 8.59322 16.9826 8.58566 16.6094C8.58309 16.4785 8.58562 16.4775 8.70199 16.4319L8.70467 16.4309C9.21435 16.2343 9.74474 16.1256 10.2881 16.079C10.6839 16.0454 11.0797 16.0325 11.4782 16.0764C11.9387 16.1282 12.3811 16.2369 12.7847 16.4775C13.3617 16.8216 13.6773 17.3364 13.7937 17.9858C13.8274 18.1643 13.8351 18.3454 13.8351 18.5265V20.4023ZM9.79389 20.4747C9.87151 20.7205 10.0578 20.8551 10.2958 20.912C11.2686 21.15 11.874 20.3428 11.9051 19.6106C11.9077 19.5537 11.8895 19.5278 11.8275 19.5252C11.7059 19.52 11.5849 19.5142 11.4639 19.5084C11.343 19.5026 11.222 19.4968 11.1004 19.4916C10.9452 19.4838 10.79 19.5019 10.6373 19.5226C10.4304 19.5485 10.2311 19.6028 10.0578 19.7244C9.81459 19.8926 9.70593 20.1979 9.79389 20.4747ZM19.4313 17.8813C19.3588 17.8451 19.2916 17.8114 19.2191 17.7804C18.7534 17.5734 18.267 17.5061 17.7677 17.6226C17.1338 17.7726 16.7043 18.2694 16.6164 18.9136C16.5724 19.2318 16.5827 19.5449 16.7147 19.8398C16.9631 20.3961 17.4132 20.6962 18.0005 20.7919C18.4921 20.8695 18.9682 20.7893 19.4287 20.6108C19.4501 20.6025 19.4716 20.5936 19.4925 20.5849C19.5171 20.5747 19.5409 20.5649 19.5632 20.5565C19.5949 20.5649 19.5956 20.582 19.5961 20.5979C19.5963 20.6014 19.5964 20.6049 19.5969 20.6082C19.6011 20.757 19.6051 20.9054 19.6091 21.0538L19.6091 21.0541C19.6172 21.3547 19.6253 21.6549 19.6357 21.9562C19.6383 22.0441 19.6098 22.083 19.5244 22.1088C19.201 22.2046 18.8724 22.2666 18.5387 22.3055C17.9048 22.3779 17.2787 22.3391 16.6681 22.1554C15.9747 21.9458 15.3926 21.5733 14.9735 20.973C14.6837 20.5565 14.5311 20.0908 14.4741 19.5889C14.4198 19.0869 14.4638 18.598 14.6242 18.1219C14.914 17.2733 15.5013 16.6989 16.3214 16.36C16.9475 16.1013 17.6047 16.0211 18.28 16.0677C18.6862 16.0961 19.0794 16.1686 19.4546 16.3264C19.5972 16.3864 19.597 16.3884 19.5828 16.5267L19.5813 16.5411C19.5425 16.9163 19.5063 17.2914 19.4701 17.6666C19.4692 17.6782 19.4685 17.6899 19.4679 17.7018C19.4646 17.7589 19.4613 17.8192 19.4313 17.8813ZM22.3137 17.2166C22.3028 17.2409 22.2902 17.2689 22.2384 17.2734V16.342C22.2384 16.1997 22.2384 16.1971 22.0961 16.1971H20.4998C20.3549 16.1971 20.3524 16.1971 20.3524 16.3394V22.0623C20.3524 22.1943 20.3549 22.1968 20.4895 22.1968H22.2876C22.4221 22.1968 22.4221 22.1943 22.4247 22.0625L22.4247 22.0623V21.9536V19.6122C22.4247 19.3845 22.4428 19.1594 22.4842 18.9344C22.5334 18.6575 22.6188 18.3936 22.7895 18.1634C23.0482 17.8167 23.4674 17.7287 23.8141 17.8037C24.0935 17.8632 24.2513 18.065 24.3444 18.3212C24.4247 18.5411 24.4428 18.7739 24.4428 19.0068V22.0002C24.4428 22.0123 24.4431 22.0244 24.4433 22.0364C24.4439 22.0606 24.4445 22.0847 24.4428 22.1089C24.4376 22.1787 24.4738 22.1994 24.5359 22.1943C24.5532 22.1925 24.5704 22.1931 24.5876 22.1937C24.5963 22.194 24.6049 22.1943 24.6135 22.1943H26.3495H26.4427C26.4944 22.1968 26.5177 22.171 26.5151 22.1192C26.5134 22.0951 26.514 22.0709 26.5146 22.0468C26.5148 22.0347 26.5151 22.0226 26.5151 22.0106C26.5151 21.7569 26.5154 21.5036 26.5157 21.2503C26.5163 20.7441 26.5169 20.2382 26.5151 19.7312C26.5151 19.5087 26.5203 19.2862 26.5514 19.0663C26.5876 18.8024 26.6497 18.5489 26.779 18.3134C26.9032 18.0909 27.074 17.915 27.3249 17.8374C27.8915 17.664 28.3288 17.8581 28.4737 18.4557C28.5125 18.6187 28.5306 18.7817 28.5306 18.9473V22.0028V22.127C28.5306 22.1684 28.5461 22.1943 28.5927 22.1943H28.6858H30.4374C30.5271 22.1943 30.5685 22.1968 30.5875 22.1774C30.6069 22.1576 30.6029 22.1149 30.6029 22.0235C30.6029 21.6802 30.6027 21.3371 30.6024 20.9942C30.6018 20.3086 30.6012 19.6233 30.6029 18.9369C30.6029 18.6575 30.5952 18.3807 30.5797 18.1013C30.5667 17.8374 30.5253 17.5761 30.4529 17.3225C30.264 16.6498 29.8268 16.2436 29.1412 16.1117C28.7841 16.0444 28.4245 16.0263 28.0623 16.0806C27.5319 16.1608 27.0662 16.373 26.6859 16.7637C26.5904 16.8611 26.5096 16.9702 26.4291 17.079C26.4027 17.1146 26.3764 17.1502 26.3495 17.1854C26.315 17.159 26.2996 17.1246 26.2846 17.091C26.2805 17.0818 26.2764 17.0727 26.2719 17.0638C26.0546 16.6291 25.7157 16.3368 25.2603 16.179C24.792 16.016 24.316 16.0134 23.8374 16.1117C23.1724 16.2488 22.6472 16.5929 22.3186 17.2061C22.317 17.2095 22.3154 17.213 22.3137 17.2166Z" fill="#E0E0E0"/>
<path d="M46.0802 12.5144L47.6498 8.22252H48.5327L50.1023 12.5144H49.2685L48.9251 11.5211H47.2513L46.9018 12.5144H46.0802ZM47.4659 10.908H48.7105L48.0852 9.12382L47.4659 10.908ZM51.8937 12.588C51.6239 12.588 51.3869 12.5451 51.1825 12.4592C50.9781 12.3693 50.8146 12.2467 50.692 12.0913C50.5694 11.936 50.4958 11.7562 50.4713 11.5518H51.2622C51.2867 11.6703 51.3521 11.7725 51.4584 11.8584C51.5688 11.9401 51.7098 11.981 51.8815 11.981C52.0531 11.981 52.1778 11.9462 52.2555 11.8768C52.3372 11.8073 52.3781 11.7276 52.3781 11.6376C52.3781 11.5068 52.3209 11.419 52.2064 11.374C52.092 11.3249 51.9325 11.2779 51.7282 11.233C51.5974 11.2044 51.4645 11.1696 51.3296 11.1287C51.1948 11.0879 51.0701 11.0368 50.9556 10.9755C50.8453 10.9101 50.7553 10.8283 50.6859 10.7302C50.6164 10.628 50.5816 10.5034 50.5816 10.3562C50.5816 10.0864 50.6879 9.85957 50.9005 9.67563C51.1171 9.49169 51.4196 9.39972 51.8079 9.39972C52.1676 9.39972 52.4537 9.48352 52.6663 9.65111C52.8829 9.81869 53.0117 10.0496 53.0525 10.3439H52.3106C52.2657 10.1191 52.096 10.0067 51.8017 10.0067C51.6546 10.0067 51.5401 10.0353 51.4584 10.0926C51.3807 10.1498 51.3419 10.2213 51.3419 10.3072C51.3419 10.3971 51.4012 10.4686 51.5197 10.5217C51.6382 10.5749 51.7956 10.6239 51.9918 10.6689C52.2044 10.7179 52.3985 10.7731 52.5743 10.8344C52.7541 10.8917 52.8972 10.9795 53.0035 11.0981C53.1098 11.2125 53.1629 11.3781 53.1629 11.5947C53.167 11.7827 53.1179 11.9524 53.0157 12.1036C52.9135 12.2548 52.7664 12.3734 52.5743 12.4592C52.3822 12.5451 52.1553 12.588 51.8937 12.588ZM55.115 12.588C54.8452 12.588 54.6082 12.5451 54.4038 12.4592C54.1994 12.3693 54.0359 12.2467 53.9133 12.0913C53.7907 11.936 53.7171 11.7562 53.6926 11.5518H54.4835C54.508 11.6703 54.5734 11.7725 54.6797 11.8584C54.7901 11.9401 54.9311 11.981 55.1028 11.981C55.2744 11.981 55.3991 11.9462 55.4768 11.8768C55.5585 11.8073 55.5994 11.7276 55.5994 11.6376C55.5994 11.5068 55.5422 11.419 55.4277 11.374C55.3133 11.3249 55.1539 11.2779 54.9495 11.233C54.8187 11.2044 54.6858 11.1696 54.5509 11.1287C54.4161 11.0879 54.2914 11.0368 54.1769 10.9755C54.0666 10.9101 53.9767 10.8283 53.9072 10.7302C53.8377 10.628 53.8029 10.5034 53.8029 10.3562C53.8029 10.0864 53.9092 9.85957 54.1218 9.67563C54.3384 9.49169 54.6409 9.39972 55.0292 9.39972C55.3889 9.39972 55.675 9.48352 55.8876 9.65111C56.1042 9.81869 56.233 10.0496 56.2738 10.3439H55.5319C55.487 10.1191 55.3174 10.0067 55.0231 10.0067C54.8759 10.0067 54.7615 10.0353 54.6797 10.0926C54.602 10.1498 54.5632 10.2213 54.5632 10.3072C54.5632 10.3971 54.6225 10.4686 54.741 10.5217C54.8596 10.5749 55.0169 10.6239 55.2131 10.6689C55.4257 10.7179 55.6198 10.7731 55.7956 10.8344C55.9754 10.8917 56.1185 10.9795 56.2248 11.0981C56.3311 11.2125 56.3842 11.3781 56.3842 11.5947C56.3883 11.7827 56.3392 11.9524 56.237 12.1036C56.1349 12.2548 55.9877 12.3734 55.7956 12.4592C55.6035 12.5451 55.3766 12.588 55.115 12.588ZM58.5387 12.588C58.2444 12.588 57.9787 12.5205 57.7416 12.3856C57.5086 12.2508 57.3226 12.0648 57.1837 11.8277C57.0488 11.5865 56.9813 11.3086 56.9813 10.9939C56.9813 10.6791 57.0508 10.4032 57.1898 10.1661C57.3288 9.92497 57.5147 9.73694 57.7477 9.60206C57.9848 9.46717 58.2505 9.39972 58.5448 9.39972C58.835 9.39972 59.0966 9.46717 59.3296 9.60206C59.5667 9.73694 59.7527 9.92497 59.8875 10.1661C60.0265 10.4032 60.096 10.6791 60.096 10.9939C60.096 11.3086 60.0265 11.5865 59.8875 11.8277C59.7527 12.0648 59.5667 12.2508 59.3296 12.3856C59.0925 12.5205 58.8289 12.588 58.5387 12.588ZM58.5387 11.9074C58.743 11.9074 58.9208 11.8318 59.0721 11.6806C59.2233 11.5252 59.2989 11.2963 59.2989 10.9939C59.2989 10.6914 59.2233 10.4645 59.0721 10.3133C58.9208 10.158 58.7451 10.0803 58.5448 10.0803C58.3363 10.0803 58.1565 10.158 58.0052 10.3133C57.8581 10.4645 57.7845 10.6914 57.7845 10.9939C57.7845 11.2963 57.8581 11.5252 58.0052 11.6806C58.1565 11.8318 58.3343 11.9074 58.5387 11.9074ZM62.2876 12.588C61.9769 12.588 61.7031 12.5205 61.466 12.3856C61.2289 12.2508 61.0409 12.0627 60.9019 11.8216C60.767 11.5804 60.6996 11.3045 60.6996 10.9939C60.6996 10.6832 60.767 10.4073 60.9019 10.1661C61.0409 9.92497 61.2289 9.73694 61.466 9.60206C61.7031 9.46717 61.9769 9.39972 62.2876 9.39972C62.6759 9.39972 63.0029 9.50191 63.2686 9.70629C63.5343 9.90657 63.7039 10.1845 63.7775 10.5401H62.9498C62.9089 10.393 62.8271 10.2785 62.7045 10.1968C62.586 10.111 62.445 10.068 62.2815 10.068C62.0648 10.068 61.8809 10.1498 61.7296 10.3133C61.5784 10.4768 61.5028 10.7036 61.5028 10.9939C61.5028 11.2841 61.5784 11.5109 61.7296 11.6744C61.8809 11.8379 62.0648 11.9197 62.2815 11.9197C62.445 11.9197 62.586 11.8788 62.7045 11.797C62.8271 11.7153 62.9089 11.5988 62.9498 11.4476H63.7775C63.7039 11.7909 63.5343 12.0668 63.2686 12.2753C63.0029 12.4837 62.6759 12.588 62.2876 12.588ZM64.8971 9.00119C64.7541 9.00119 64.6355 8.95827 64.5415 8.87244C64.4516 8.7866 64.4066 8.67828 64.4066 8.54748C64.4066 8.41668 64.4516 8.3104 64.5415 8.22865C64.6355 8.14282 64.7541 8.0999 64.8971 8.0999C65.0402 8.0999 65.1567 8.14282 65.2466 8.22865C65.3406 8.3104 65.3876 8.41668 65.3876 8.54748C65.3876 8.67828 65.3406 8.7866 65.2466 8.87244C65.1567 8.95827 65.0402 9.00119 64.8971 9.00119ZM64.5047 12.5144V9.4733H65.2895V12.5144H64.5047ZM67.1571 12.588C66.8955 12.588 66.6809 12.5471 66.5133 12.4654C66.3457 12.3795 66.2211 12.2671 66.1393 12.1281C66.0576 11.9892 66.0167 11.8359 66.0167 11.6683C66.0167 11.3863 66.1271 11.1574 66.3478 10.9816C66.5685 10.8058 66.8996 10.7179 67.341 10.7179H68.1136V10.6444C68.1136 10.4359 68.0543 10.2826 67.9358 10.1845C67.8172 10.0864 67.6701 10.0374 67.4943 10.0374C67.3349 10.0374 67.1959 10.0762 67.0774 10.1539C66.9589 10.2274 66.8853 10.3378 66.8567 10.485H66.0903C66.1107 10.2642 66.1843 10.0721 66.311 9.90862C66.4418 9.74512 66.6094 9.62045 66.8138 9.53461C67.0181 9.44469 67.247 9.39972 67.5005 9.39972C67.9337 9.39972 68.275 9.50804 68.5244 9.72468C68.7737 9.94132 68.8984 10.2479 68.8984 10.6444V12.5144H68.2301L68.1565 12.0239C68.0666 12.1874 67.9399 12.3223 67.7764 12.4286C67.617 12.5348 67.4105 12.588 67.1571 12.588ZM67.3349 11.9749C67.5597 11.9749 67.7334 11.9013 67.8561 11.7541C67.9828 11.607 68.0625 11.4251 68.0952 11.2084H67.4269C67.2184 11.2084 67.0692 11.2473 66.9793 11.3249C66.8894 11.3985 66.8444 11.4905 66.8444 11.6008C66.8444 11.7194 66.8894 11.8114 66.9793 11.8768C67.0692 11.9422 67.1878 11.9749 67.3349 11.9749ZM70.9604 12.5144C70.6416 12.5144 70.3861 12.4367 70.194 12.2814C70.0019 12.1261 69.9058 11.8502 69.9058 11.4537V10.1293H69.3847V9.4733H69.9058L69.9978 8.65784H70.6906V9.4733H71.5122V10.1293H70.6906V11.4598C70.6906 11.607 70.7213 11.7092 70.7826 11.7664C70.848 11.8195 70.9584 11.8461 71.1137 11.8461H71.4938V12.5144H70.9604ZM72.6091 9.00119C72.466 9.00119 72.3475 8.95827 72.2535 8.87244C72.1636 8.7866 72.1186 8.67828 72.1186 8.54748C72.1186 8.41668 72.1636 8.3104 72.2535 8.22865C72.3475 8.14282 72.466 8.0999 72.6091 8.0999C72.7522 8.0999 72.8686 8.14282 72.9586 8.22865C73.0526 8.3104 73.0996 8.41668 73.0996 8.54748C73.0996 8.67828 73.0526 8.7866 72.9586 8.87244C72.8686 8.95827 72.7522 9.00119 72.6091 9.00119ZM72.2167 12.5144V9.4733H73.0015V12.5144H72.2167ZM75.2799 12.588C74.9856 12.588 74.7199 12.5205 74.4828 12.3856C74.2498 12.2508 74.0638 12.0648 73.9249 11.8277C73.79 11.5865 73.7225 11.3086 73.7225 10.9939C73.7225 10.6791 73.792 10.4032 73.931 10.1661C74.07 9.92497 74.256 9.73694 74.4889 9.60206C74.726 9.46717 74.9917 9.39972 75.286 9.39972C75.5762 9.39972 75.8378 9.46717 76.0708 9.60206C76.3079 9.73694 76.4939 9.92497 76.6288 10.1661C76.7677 10.4032 76.8372 10.6791 76.8372 10.9939C76.8372 11.3086 76.7677 11.5865 76.6288 11.8277C76.4939 12.0648 76.3079 12.2508 76.0708 12.3856C75.8337 12.5205 75.5701 12.588 75.2799 12.588ZM75.2799 11.9074C75.4843 11.9074 75.6621 11.8318 75.8133 11.6806C75.9645 11.5252 76.0402 11.2963 76.0402 10.9939C76.0402 10.6914 75.9645 10.4645 75.8133 10.3133C75.6621 10.158 75.4863 10.0803 75.286 10.0803C75.0775 10.0803 74.8977 10.158 74.7465 10.3133C74.5993 10.4645 74.5257 10.6914 74.5257 10.9939C74.5257 11.2963 74.5993 11.5252 74.7465 11.6806C74.8977 11.8318 75.0755 11.9074 75.2799 11.9074ZM77.5389 12.5144V9.4733H78.2317L78.2931 9.98832C78.3871 9.80847 78.522 9.66541 78.6977 9.55914C78.8776 9.45286 79.0881 9.39972 79.3292 9.39972C79.7053 9.39972 79.9975 9.51826 80.206 9.75534C80.4145 9.99241 80.5187 10.3399 80.5187 10.7977V12.5144H79.7339V10.8712C79.7339 10.6096 79.6808 10.4093 79.5745 10.2704C79.4682 10.1314 79.3027 10.0619 79.0779 10.0619C78.8571 10.0619 78.6752 10.1396 78.5322 10.2949C78.3932 10.4502 78.3237 10.6669 78.3237 10.9448V12.5144H77.5389ZM82.8711 12.5144V10.1293H82.4542V9.4733H82.8711V9.11769C82.8711 8.74981 82.9631 8.48821 83.1471 8.33288C83.3351 8.17756 83.5885 8.0999 83.9073 8.0999H84.2445V8.7682H84.03C83.8951 8.7682 83.799 8.79477 83.7418 8.84791C83.6846 8.90105 83.6559 8.99097 83.6559 9.11769V9.4733H84.312V10.1293H83.6559V12.5144H82.8711ZM86.273 12.588C85.9787 12.588 85.713 12.5205 85.476 12.3856C85.243 12.2508 85.057 12.0648 84.918 11.8277C84.7831 11.5865 84.7157 11.3086 84.7157 10.9939C84.7157 10.6791 84.7852 10.4032 84.9242 10.1661C85.0631 9.92497 85.2491 9.73694 85.4821 9.60206C85.7192 9.46717 85.9849 9.39972 86.2792 9.39972C86.5694 9.39972 86.831 9.46717 87.064 9.60206C87.301 9.73694 87.487 9.92497 87.6219 10.1661C87.7609 10.4032 87.8304 10.6791 87.8304 10.9939C87.8304 11.3086 87.7609 11.5865 87.6219 11.8277C87.487 12.0648 87.301 12.2508 87.064 12.3856C86.8269 12.5205 86.5632 12.588 86.273 12.588ZM86.273 11.9074C86.4774 11.9074 86.6552 11.8318 86.8065 11.6806C86.9577 11.5252 87.0333 11.2963 87.0333 10.9939C87.0333 10.6914 86.9577 10.4645 86.8065 10.3133C86.6552 10.158 86.4795 10.0803 86.2792 10.0803C86.0707 10.0803 85.8909 10.158 85.7396 10.3133C85.5925 10.4645 85.5189 10.6914 85.5189 10.9939C85.5189 11.2963 85.5925 11.5252 85.7396 11.6806C85.8909 11.8318 86.0687 11.9074 86.273 11.9074ZM88.5321 12.5144V9.4733H89.231L89.3046 10.0435C89.415 9.84731 89.5642 9.69198 89.7522 9.57753C89.9443 9.45899 90.1691 9.39972 90.4266 9.39972V10.2274H90.2059C90.0342 10.2274 89.8809 10.254 89.7461 10.3072C89.6112 10.3603 89.5049 10.4523 89.4272 10.5831C89.3537 10.7139 89.3169 10.8958 89.3169 11.1287V12.5144H88.5321ZM48.2997 20.588C47.8665 20.588 47.4945 20.496 47.1839 20.3121C46.8732 20.124 46.6341 19.8645 46.4665 19.5334C46.2989 19.1982 46.2151 18.812 46.2151 18.3746C46.2151 17.9372 46.2989 17.551 46.4665 17.2158C46.6341 16.8806 46.8732 16.619 47.1839 16.431C47.4945 16.243 47.8665 16.1489 48.2997 16.1489C48.8148 16.1489 49.2358 16.2777 49.5628 16.5352C49.8939 16.7886 50.1003 17.1463 50.182 17.6082H49.3175C49.2644 17.3752 49.1499 17.1933 48.9742 17.0625C48.8025 16.9276 48.5736 16.8602 48.2875 16.8602C47.891 16.8602 47.5803 16.9951 47.3555 17.2648C47.1307 17.5346 47.0183 17.9045 47.0183 18.3746C47.0183 18.8447 47.1307 19.2146 47.3555 19.4844C47.5803 19.75 47.891 19.8829 48.2875 19.8829C48.5736 19.8829 48.8025 19.8216 48.9742 19.6989C49.1499 19.5722 49.2644 19.3985 49.3175 19.1778H50.182C50.1003 19.6192 49.8939 19.9646 49.5628 20.214C49.2358 20.4633 48.8148 20.588 48.2997 20.588ZM52.3176 20.588C52.0233 20.588 51.7576 20.5205 51.5205 20.3856C51.2875 20.2508 51.1016 20.0648 50.9626 19.8277C50.8277 19.5865 50.7602 19.3086 50.7602 18.9939C50.7602 18.6791 50.8297 18.4032 50.9687 18.1661C51.1077 17.925 51.2937 17.7369 51.5267 17.6021C51.7637 17.4672 52.0294 17.3997 52.3237 17.3997C52.6139 17.3997 52.8755 17.4672 53.1085 17.6021C53.3456 17.7369 53.5316 17.925 53.6665 18.1661C53.8054 18.4032 53.8749 18.6791 53.8749 18.9939C53.8749 19.3086 53.8054 19.5865 53.6665 19.8277C53.5316 20.0648 53.3456 20.2508 53.1085 20.3856C52.8714 20.5205 52.6078 20.588 52.3176 20.588ZM52.3176 19.9074C52.522 19.9074 52.6998 19.8318 52.851 19.6806C53.0022 19.5252 53.0779 19.2963 53.0779 18.9939C53.0779 18.6914 53.0022 18.4645 52.851 18.3133C52.6998 18.158 52.524 18.0803 52.3237 18.0803C52.1153 18.0803 51.9354 18.158 51.7842 18.3133C51.637 18.4645 51.5634 18.6914 51.5634 18.9939C51.5634 19.2963 51.637 19.5252 51.7842 19.6806C51.9354 19.8318 52.1132 19.9074 52.3176 19.9074ZM54.5766 20.5144V17.4733H55.2695L55.3369 17.8841C55.435 17.7369 55.5638 17.6204 55.7232 17.5346C55.8867 17.4447 56.0747 17.3997 56.2872 17.3997C56.7573 17.3997 57.0904 17.5816 57.2866 17.9454C57.397 17.7778 57.5442 17.645 57.7281 17.5469C57.9161 17.4488 58.1205 17.3997 58.3412 17.3997C58.7377 17.3997 59.0422 17.5183 59.2548 17.7553C59.4673 17.9924 59.5736 18.3399 59.5736 18.7977V20.5144H58.7888V18.8712C58.7888 18.6096 58.7377 18.4093 58.6355 18.2704C58.5374 18.1314 58.3841 18.0619 58.1757 18.0619C57.9631 18.0619 57.7914 18.1396 57.6606 18.2949C57.5339 18.4502 57.4706 18.6669 57.4706 18.9448V20.5144H56.6858V18.8712C56.6858 18.6096 56.6347 18.4093 56.5325 18.2704C56.4303 18.1314 56.2729 18.0619 56.0604 18.0619C55.8519 18.0619 55.6823 18.1396 55.5515 18.2949C55.4248 18.4502 55.3614 18.6669 55.3614 18.9448V20.5144H54.5766ZM60.3187 21.8633V17.4733H61.0177L61.1035 17.9086C61.2016 17.7737 61.3303 17.6552 61.4898 17.553C61.6533 17.4508 61.8638 17.3997 62.1213 17.3997C62.4074 17.3997 62.6629 17.4692 62.8877 17.6082C63.1125 17.7472 63.2903 17.9372 63.4211 18.1784C63.5519 18.4196 63.6173 18.6934 63.6173 19C63.6173 19.3065 63.5519 19.5804 63.4211 19.8216C63.2903 20.0586 63.1125 20.2467 62.8877 20.3856C62.6629 20.5205 62.4074 20.588 62.1213 20.588C61.8924 20.588 61.6921 20.5451 61.5204 20.4592C61.3487 20.3734 61.2098 20.2528 61.1035 20.0975V21.8633H60.3187ZM61.9557 19.9013C62.2051 19.9013 62.4115 19.8175 62.575 19.6499C62.7385 19.4823 62.8202 19.2657 62.8202 19C62.8202 18.7343 62.7385 18.5156 62.575 18.3439C62.4115 18.1723 62.2051 18.0864 61.9557 18.0864C61.7023 18.0864 61.4938 18.1723 61.3303 18.3439C61.1709 18.5115 61.0912 18.7282 61.0912 18.9939C61.0912 19.2595 61.1709 19.4782 61.3303 19.6499C61.4938 19.8175 61.7023 19.9013 61.9557 19.9013ZM65.4588 20.588C65.0787 20.588 64.7844 20.4694 64.5759 20.2324C64.3715 19.9953 64.2693 19.6479 64.2693 19.1901V17.4733H65.048V19.1165C65.048 19.3781 65.1011 19.5784 65.2074 19.7173C65.3137 19.8563 65.4813 19.9258 65.7102 19.9258C65.9268 19.9258 66.1046 19.8481 66.2436 19.6928C66.3867 19.5375 66.4582 19.3209 66.4582 19.0429V17.4733H67.243V20.5144H66.5502L66.4888 19.9994C66.3948 20.1792 66.2579 20.3223 66.0781 20.4286C65.9023 20.5348 65.6959 20.588 65.4588 20.588ZM69.4036 20.5144C69.0848 20.5144 68.8293 20.4367 68.6372 20.2814C68.4451 20.1261 68.3491 19.8502 68.3491 19.4537V18.1293H67.8279V17.4733H68.3491L68.441 16.6578H69.1339V17.4733H69.9555V18.1293H69.1339V19.4598C69.1339 19.607 69.1645 19.7092 69.2258 19.7664C69.2912 19.8195 69.4016 19.8461 69.5569 19.8461H69.9371V20.5144H69.4036ZM71.0523 17.0012C70.9093 17.0012 70.7907 16.9583 70.6967 16.8724C70.6068 16.7866 70.5618 16.6783 70.5618 16.5475C70.5618 16.4167 70.6068 16.3104 70.6967 16.2287C70.7907 16.1428 70.9093 16.0999 71.0523 16.0999C71.1954 16.0999 71.3119 16.1428 71.4018 16.2287C71.4958 16.3104 71.5428 16.4167 71.5428 16.5475C71.5428 16.6783 71.4958 16.7866 71.4018 16.8724C71.3119 16.9583 71.1954 17.0012 71.0523 17.0012ZM70.6599 20.5144V17.4733H71.4447V20.5144H70.6599ZM72.2639 20.5144V17.4733H72.9567L73.018 17.9883C73.112 17.8085 73.2469 17.6654 73.4227 17.5591C73.6025 17.4529 73.813 17.3997 74.0542 17.3997C74.4303 17.3997 74.7225 17.5183 74.931 17.7553C75.1394 17.9924 75.2437 18.3399 75.2437 18.7977V20.5144H74.4589V18.8712C74.4589 18.6096 74.4057 18.4093 74.2994 18.2704C74.1932 18.1314 74.0276 18.0619 73.8028 18.0619C73.5821 18.0619 73.4002 18.1396 73.2571 18.2949C73.1182 18.4502 73.0487 18.6669 73.0487 18.9448V20.5144H72.2639ZM77.2817 19.607C77.1345 19.607 76.9976 19.5906 76.8709 19.5579L76.644 19.7848C76.7135 19.8216 76.8075 19.8522 76.9261 19.8768C77.0446 19.9013 77.2367 19.9258 77.5024 19.9503C77.9071 19.9871 78.2014 20.0832 78.3853 20.2385C78.5693 20.3938 78.6612 20.6084 78.6612 20.8823C78.6612 21.0621 78.6122 21.2318 78.5141 21.3912C78.416 21.5547 78.2647 21.6855 78.0604 21.7836C77.856 21.8858 77.5944 21.9369 77.2756 21.9369C76.8423 21.9369 76.4928 21.8551 76.2271 21.6916C75.9614 21.5322 75.8286 21.291 75.8286 20.9681C75.8286 20.6943 75.9614 20.4572 76.2271 20.2569C76.1454 20.2201 76.0738 20.1813 76.0125 20.1404C75.9553 20.0995 75.9042 20.0566 75.8592 20.0116V19.8706L76.3927 19.3065C76.1556 19.0981 76.037 18.8304 76.037 18.5034C76.037 18.299 76.0861 18.113 76.1842 17.9454C76.2864 17.7778 76.4294 17.645 76.6134 17.5469C76.7973 17.4488 77.0201 17.3997 77.2817 17.3997C77.4534 17.3997 77.6128 17.4242 77.7599 17.4733H78.9126V17.9515L78.3914 17.9883C78.4732 18.1437 78.5141 18.3153 78.5141 18.5034C78.5141 18.7077 78.465 18.8937 78.3669 19.0613C78.2688 19.2289 78.1258 19.3617 77.9377 19.4598C77.7538 19.5579 77.5351 19.607 77.2817 19.607ZM77.2817 19.0061C77.4411 19.0061 77.5719 18.9632 77.6741 18.8774C77.7804 18.7915 77.8335 18.6689 77.8335 18.5095C77.8335 18.3501 77.7804 18.2274 77.6741 18.1416C77.5719 18.0558 77.4411 18.0128 77.2817 18.0128C77.1141 18.0128 76.9792 18.0558 76.877 18.1416C76.7748 18.2274 76.7237 18.3501 76.7237 18.5095C76.7237 18.6689 76.7748 18.7915 76.877 18.8774C76.9792 18.9632 77.1141 19.0061 77.2817 19.0061ZM76.5459 20.8884C76.5459 21.0396 76.6154 21.1521 76.7544 21.2256C76.8975 21.3033 77.0712 21.3421 77.2756 21.3421C77.4718 21.3421 77.6312 21.3012 77.7538 21.2195C77.8764 21.1418 77.9377 21.0356 77.9377 20.9007C77.9377 20.7903 77.8969 20.6983 77.8151 20.6248C77.7374 20.5512 77.5801 20.5062 77.343 20.4899C77.1754 20.4776 77.0201 20.4592 76.877 20.4347C76.7585 20.5001 76.6726 20.5716 76.6195 20.6493C76.5705 20.727 76.5459 20.8067 76.5459 20.8884ZM80.9642 20.5144V16.2225H81.8962L83.2634 18.9448L84.6123 16.2225H85.5443V20.5144H84.7595V17.553L83.5639 19.9013H82.9446L81.749 17.553V20.5144H80.9642ZM87.407 20.588C87.1454 20.588 86.9308 20.5471 86.7632 20.4654C86.5957 20.3795 86.471 20.2671 86.3892 20.1281C86.3075 19.9892 86.2666 19.8359 86.2666 19.6683C86.2666 19.3863 86.377 19.1574 86.5977 18.9816C86.8184 18.8058 87.1495 18.7179 87.591 18.7179H88.3635V18.6444C88.3635 18.4359 88.3042 18.2826 88.1857 18.1845C88.0672 18.0864 87.92 18.0374 87.7442 18.0374C87.5848 18.0374 87.4459 18.0762 87.3273 18.1539C87.2088 18.2274 87.1352 18.3378 87.1066 18.485H86.3402C86.3606 18.2642 86.4342 18.0721 86.5609 17.9086C86.6917 17.7451 86.8593 17.6204 87.0637 17.5346C87.2681 17.4447 87.497 17.3997 87.7504 17.3997C88.1837 17.3997 88.525 17.508 88.7743 17.7247C89.0236 17.9413 89.1483 18.2479 89.1483 18.6444V20.5144H88.48L88.4064 20.0239C88.3165 20.1874 88.1898 20.3223 88.0263 20.4286C87.8669 20.5348 87.6605 20.588 87.407 20.588ZM87.5848 19.9749C87.8096 19.9749 87.9834 19.9013 88.106 19.7541C88.2327 19.607 88.3124 19.4251 88.3451 19.2084H87.6768C87.4683 19.2084 87.3191 19.2473 87.2292 19.3249C87.1393 19.3985 87.0943 19.4905 87.0943 19.6008C87.0943 19.7194 87.1393 19.8114 87.2292 19.8768C87.3191 19.9422 87.4377 19.9749 87.5848 19.9749ZM91.3871 20.588C91.0765 20.588 90.8026 20.5205 90.5655 20.3856C90.3285 20.2508 90.1404 20.0627 90.0015 19.8216C89.8666 19.5804 89.7991 19.3045 89.7991 18.9939C89.7991 18.6832 89.8666 18.4073 90.0015 18.1661C90.1404 17.925 90.3285 17.7369 90.5655 17.6021C90.8026 17.4672 91.0765 17.3997 91.3871 17.3997C91.7754 17.3997 92.1024 17.5019 92.3681 17.7063C92.6338 17.9066 92.8034 18.1845 92.877 18.5401H92.0493C92.0084 18.393 91.9267 18.2785 91.8041 18.1968C91.6855 18.111 91.5445 18.068 91.381 18.068C91.1644 18.068 90.9804 18.1498 90.8292 18.3133C90.6779 18.4768 90.6023 18.7036 90.6023 18.9939C90.6023 19.2841 90.6779 19.5109 90.8292 19.6744C90.9804 19.8379 91.1644 19.9197 91.381 19.9197C91.5445 19.9197 91.6855 19.8788 91.8041 19.797C91.9267 19.7153 92.0084 19.5988 92.0493 19.4476H92.877C92.8034 19.7909 92.6338 20.0668 92.3681 20.2753C92.1024 20.4837 91.7754 20.588 91.3871 20.588ZM93.5736 20.5144V16.0999H94.3584V17.9393C94.4606 17.7717 94.5975 17.6409 94.7692 17.5469C94.945 17.4488 95.1452 17.3997 95.3701 17.3997C95.7461 17.3997 96.0363 17.5183 96.2407 17.7553C96.4492 17.9924 96.5534 18.3399 96.5534 18.7977V20.5144H95.7747V18.8712C95.7747 18.6096 95.7216 18.4093 95.6153 18.2704C95.5131 18.1314 95.3496 18.0619 95.1248 18.0619C94.9041 18.0619 94.7201 18.1396 94.573 18.2949C94.4299 18.4502 94.3584 18.6669 94.3584 18.9448V20.5144H93.5736ZM97.7269 17.0012C97.5838 17.0012 97.4653 16.9583 97.3713 16.8724C97.2814 16.7866 97.2364 16.6783 97.2364 16.5475C97.2364 16.4167 97.2814 16.3104 97.3713 16.2287C97.4653 16.1428 97.5838 16.0999 97.7269 16.0999C97.87 16.0999 97.9865 16.1428 98.0764 16.2287C98.1704 16.3104 98.2174 16.4167 98.2174 16.5475C98.2174 16.6783 98.1704 16.7866 98.0764 16.8724C97.9865 16.9583 97.87 17.0012 97.7269 17.0012ZM97.3345 20.5144V17.4733H98.1193V20.5144H97.3345ZM98.9384 20.5144V17.4733H99.6313L99.6926 17.9883C99.7866 17.8085 99.9215 17.6654 100.097 17.5591C100.277 17.4529 100.488 17.3997 100.729 17.3997C101.105 17.3997 101.397 17.5183 101.606 17.7553C101.814 17.9924 101.918 18.3399 101.918 18.7977V20.5144H101.133V18.8712C101.133 18.6096 101.08 18.4093 100.974 18.2704C100.868 18.1314 100.702 18.0619 100.477 18.0619C100.257 18.0619 100.075 18.1396 99.9317 18.2949C99.7927 18.4502 99.7232 18.6669 99.7232 18.9448V20.5144H98.9384ZM104.146 20.588C103.84 20.588 103.568 20.5226 103.331 20.3918C103.094 20.261 102.908 20.077 102.773 19.84C102.638 19.6029 102.571 19.329 102.571 19.0184C102.571 18.7036 102.636 18.4236 102.767 18.1784C102.902 17.9331 103.086 17.7431 103.319 17.6082C103.556 17.4692 103.834 17.3997 104.152 17.3997C104.451 17.3997 104.714 17.4651 104.943 17.5959C105.172 17.7267 105.35 17.9066 105.477 18.1355C105.608 18.3603 105.673 18.6117 105.673 18.8896C105.673 18.9346 105.671 18.9816 105.667 19.0306C105.667 19.0797 105.665 19.1308 105.661 19.1839H103.349C103.366 19.421 103.447 19.607 103.595 19.7419C103.746 19.8768 103.928 19.9442 104.14 19.9442C104.3 19.9442 104.432 19.9095 104.539 19.84C104.649 19.7664 104.731 19.6724 104.784 19.5579H105.581C105.524 19.75 105.428 19.9258 105.293 20.0852C105.162 20.2405 104.999 20.3632 104.802 20.4531C104.61 20.543 104.392 20.588 104.146 20.588ZM104.152 18.0374C103.96 18.0374 103.791 18.0926 103.644 18.2029C103.496 18.3092 103.402 18.4727 103.362 18.6934H104.876C104.864 18.4931 104.79 18.3337 104.655 18.2152C104.52 18.0966 104.353 18.0374 104.152 18.0374ZM106.333 20.5144V17.4733H107.032L107.106 18.0435C107.216 17.8473 107.365 17.692 107.553 17.5775C107.745 17.459 107.97 17.3997 108.228 17.3997V18.2274H108.007C107.835 18.2274 107.682 18.254 107.547 18.3072C107.412 18.3603 107.306 18.4523 107.228 18.5831C107.155 18.7139 107.118 18.8958 107.118 19.1287V20.5144H106.333ZM109.144 21.8633L109.849 20.3121H109.665L108.482 17.4733H109.334L110.186 19.6131L111.076 17.4733H111.909L109.978 21.8633H109.144Z" fill="#E0E0E0"/>
<path d="M47.2498 30.6748L46.0404 27.4559H46.4588L47.4751 30.2655L48.5005 27.4559H48.9098L47.7004 30.6748H47.2498ZM49.3511 30.6748V27.4559H49.7374V30.6748H49.3511ZM51.174 30.6748V27.7732H50.213V27.4559H52.5214V27.7732H51.5603V30.6748H51.174ZM55.2355 30.73C54.9994 30.73 54.794 30.6871 54.6193 30.6012C54.4445 30.5154 54.3096 30.3958 54.2146 30.2426C54.1196 30.0893 54.0721 29.9115 54.0721 29.7091H54.4767C54.4767 29.8348 54.5058 29.9513 54.5641 30.0586C54.6223 30.1628 54.7066 30.2471 54.817 30.3115C54.9304 30.3728 55.0699 30.4035 55.2355 30.4035C55.4531 30.4035 55.6217 30.3514 55.7413 30.2471C55.8609 30.1429 55.9206 30.0126 55.9206 29.8563C55.9206 29.7275 55.893 29.6248 55.8379 29.5482C55.7827 29.4685 55.7076 29.4041 55.6125 29.3551C55.5206 29.306 55.4133 29.2631 55.2907 29.2263C55.1711 29.1895 55.0454 29.1481 54.9136 29.1021C54.6653 29.0163 54.4813 28.9105 54.3618 28.7848C54.2422 28.6561 54.1824 28.489 54.1824 28.2836C54.1794 28.1119 54.2192 27.9602 54.302 27.8284C54.3848 27.6935 54.5013 27.5892 54.6515 27.5157C54.8047 27.439 54.9856 27.4007 55.1941 27.4007C55.3995 27.4007 55.5773 27.439 55.7275 27.5157C55.8808 27.5923 55.9988 27.6981 56.0816 27.833C56.1674 27.9679 56.2119 28.1211 56.2149 28.2928H55.8103C55.8103 28.2039 55.7873 28.1165 55.7413 28.0307C55.6953 27.9418 55.6248 27.8698 55.5298 27.8146C55.4378 27.7594 55.3213 27.7318 55.1803 27.7318C55.0055 27.7287 54.8615 27.7732 54.748 27.8652C54.6377 27.9571 54.5825 28.0843 54.5825 28.2468C54.5825 28.3848 54.6208 28.4905 54.6975 28.5641C54.7772 28.6377 54.8875 28.699 55.0285 28.7481C55.1696 28.794 55.332 28.8477 55.516 28.909C55.6693 28.9642 55.8072 29.0286 55.9298 29.1021C56.0525 29.1757 56.1475 29.2707 56.2149 29.3872C56.2854 29.5037 56.3207 29.6524 56.3207 29.8333C56.3207 29.9866 56.2808 30.1322 56.2011 30.2701C56.1214 30.405 56.0003 30.5154 55.8379 30.6012C55.6785 30.6871 55.4777 30.73 55.2355 30.73ZM57.7468 30.6748C57.5383 30.6748 57.3743 30.6242 57.2548 30.5231C57.1352 30.4219 57.0754 30.2395 57.0754 29.9758V28.7205H56.68V28.394H57.0754L57.126 27.8468H57.4617V28.394H58.1331V28.7205H57.4617V29.9758C57.4617 30.1199 57.4908 30.218 57.5491 30.2701C57.6073 30.3192 57.71 30.3437 57.8572 30.3437H58.0963V30.6748H57.7468ZM59.4561 30.73C59.1863 30.73 58.9718 30.6487 58.8123 30.4863C58.6529 30.3207 58.5732 30.0678 58.5732 29.7275V28.394H58.9595V29.6861C58.9595 30.1613 59.1542 30.3989 59.5435 30.3989C59.7428 30.3989 59.9068 30.3284 60.0355 30.1874C60.1674 30.0433 60.2333 29.8394 60.2333 29.5758V28.394H60.6195V30.6748H60.27L60.2425 30.2655C60.1719 30.4096 60.0662 30.5231 59.9252 30.6058C59.7872 30.6886 59.6309 30.73 59.4561 30.73ZM62.29 30.73C62.0631 30.73 61.8639 30.6779 61.6922 30.5736C61.5236 30.4694 61.3918 30.3269 61.2967 30.146C61.2048 29.9651 61.1588 29.7597 61.1588 29.5298C61.1588 29.2999 61.2063 29.096 61.3013 28.9182C61.3964 28.7373 61.5282 28.5963 61.6968 28.4951C61.8654 28.3909 62.0647 28.3388 62.2946 28.3388C62.4816 28.3388 62.6471 28.3771 62.7912 28.4538C62.9353 28.5304 63.0472 28.6377 63.1269 28.7756V27.3639H63.5132V30.6748H63.1637L63.1269 30.2977C63.0533 30.4081 62.9476 30.5077 62.8096 30.5966C62.6717 30.6855 62.4985 30.73 62.29 30.73ZM62.3314 30.3943C62.4847 30.3943 62.6195 30.359 62.736 30.2885C62.8556 30.215 62.9476 30.1138 63.0119 29.985C63.0794 29.8563 63.1131 29.7061 63.1131 29.5344C63.1131 29.3627 63.0794 29.2125 63.0119 29.0837C62.9476 28.955 62.8556 28.8554 62.736 28.7848C62.6195 28.7113 62.4847 28.6745 62.3314 28.6745C62.1812 28.6745 62.0463 28.7113 61.9267 28.7848C61.8102 28.8554 61.7182 28.955 61.6508 29.0837C61.5864 29.2125 61.5542 29.3627 61.5542 29.5344C61.5542 29.7061 61.5864 29.8563 61.6508 29.985C61.7182 30.1138 61.8102 30.215 61.9267 30.2885C62.0463 30.359 62.1812 30.3943 62.3314 30.3943ZM65.1683 30.73C64.9506 30.73 64.7575 30.6809 64.5889 30.5828C64.4203 30.4817 64.2869 30.3422 64.1888 30.1644C64.0938 29.9866 64.0463 29.7766 64.0463 29.5344C64.0463 29.2953 64.0938 29.0868 64.1888 28.909C64.2839 28.7281 64.4157 28.5886 64.5843 28.4905C64.756 28.3894 64.9537 28.3388 65.1775 28.3388C65.3982 28.3388 65.5883 28.3894 65.7477 28.4905C65.9102 28.5886 66.0343 28.7189 66.1202 28.8814C66.206 29.0439 66.2489 29.2186 66.2489 29.4056C66.2489 29.4394 66.2474 29.4731 66.2443 29.5068C66.2443 29.5405 66.2443 29.5788 66.2443 29.6218H64.4279C64.4371 29.7965 64.477 29.9421 64.5475 30.0586C64.6211 30.172 64.7115 30.2579 64.8188 30.3161C64.9292 30.3744 65.0457 30.4035 65.1683 30.4035C65.3277 30.4035 65.4611 30.3667 65.5684 30.2931C65.6757 30.2196 65.7538 30.1199 65.8029 29.9942H66.1845C66.1232 30.2058 66.0052 30.382 65.8305 30.5231C65.6588 30.661 65.4381 30.73 65.1683 30.73ZM65.1683 28.6653C64.9844 28.6653 64.8203 28.722 64.6763 28.8354C64.5352 28.9458 64.454 29.1083 64.4325 29.3229H65.8673C65.8581 29.1175 65.7875 28.9565 65.6557 28.84C65.5239 28.7235 65.3614 28.6653 65.1683 28.6653ZM66.7609 30.6748V28.394H67.1104L67.1334 28.8032C67.2069 28.6592 67.3127 28.5457 67.4507 28.463C67.5886 28.3802 67.745 28.3388 67.9197 28.3388C68.1895 28.3388 68.4041 28.4216 68.5635 28.5871C68.726 28.7496 68.8072 29.001 68.8072 29.3413V30.6748H68.4209V29.3826C68.4209 28.9075 68.2247 28.6699 67.8323 28.6699C67.6361 28.6699 67.4721 28.7419 67.3403 28.886C67.2115 29.027 67.1472 29.2294 67.1472 29.493V30.6748H66.7609ZM70.2937 30.6748C70.0853 30.6748 69.9213 30.6242 69.8017 30.5231C69.6821 30.4219 69.6224 30.2395 69.6224 29.9758V28.7205H69.2269V28.394H69.6224L69.6729 27.8468H70.0086V28.394H70.68V28.7205H70.0086V29.9758C70.0086 30.1199 70.0377 30.218 70.096 30.2701C70.1542 30.3192 70.2569 30.3437 70.4041 30.3437H70.6432V30.6748H70.2937ZM73.8224 30.73C73.5067 30.73 73.2338 30.661 73.0039 30.5231C72.777 30.382 72.6008 30.1874 72.4751 29.9391C72.3494 29.6877 72.2865 29.3964 72.2865 29.0653C72.2865 28.7373 72.3494 28.4492 72.4751 28.2008C72.6008 27.9495 72.777 27.7533 73.0039 27.6122C73.2338 27.4712 73.5067 27.4007 73.8224 27.4007C74.1903 27.4007 74.4892 27.4896 74.7191 27.6674C74.9521 27.8422 75.1008 28.0874 75.1652 28.4032H74.7375C74.6885 28.2039 74.5873 28.0445 74.434 27.9249C74.2838 27.8023 74.0799 27.741 73.8224 27.741C73.5925 27.741 73.3917 27.7946 73.22 27.9019C73.0483 28.0062 72.915 28.1579 72.82 28.3572C72.728 28.5534 72.682 28.7894 72.682 29.0653C72.682 29.3413 72.728 29.5788 72.82 29.7781C72.915 29.9743 73.0483 30.1261 73.22 30.2334C73.3917 30.3376 73.5925 30.3897 73.8224 30.3897C74.0799 30.3897 74.2838 30.3315 74.434 30.215C74.5873 30.0954 74.6885 29.9375 74.7375 29.7413H75.1652C75.1008 30.0509 74.9521 30.2931 74.7191 30.4679C74.4892 30.6426 74.1903 30.73 73.8224 30.73ZM75.6973 30.6748V27.3639H76.0836V28.7848C76.1602 28.6438 76.2691 28.535 76.4101 28.4584C76.5511 28.3786 76.7044 28.3388 76.8699 28.3388C77.1336 28.3388 77.3451 28.4216 77.5045 28.5871C77.6639 28.7496 77.7436 29.001 77.7436 29.3413V30.6748H77.362V29.3826C77.362 28.9075 77.1704 28.6699 76.7872 28.6699C76.5879 28.6699 76.4208 28.7419 76.2859 28.886C76.151 29.027 76.0836 29.2294 76.0836 29.493V30.6748H75.6973ZM79.0876 30.73C78.8975 30.73 78.7397 30.6978 78.614 30.6334C78.4883 30.569 78.3948 30.4832 78.3335 30.3759C78.2721 30.2686 78.2415 30.1521 78.2415 30.0264C78.2415 29.7934 78.3304 29.6141 78.5082 29.4884C78.686 29.3627 78.9282 29.2999 79.2348 29.2999H79.8509V29.2723C79.8509 29.073 79.7988 28.9228 79.6946 28.8216C79.5904 28.7174 79.4509 28.6653 79.2761 28.6653C79.1259 28.6653 78.9956 28.7036 78.8853 28.7802C78.778 28.8538 78.7105 28.9627 78.6829 29.1067H78.2875C78.3028 28.9412 78.358 28.8017 78.453 28.6883C78.5511 28.5748 78.6722 28.489 78.8163 28.4308C78.9604 28.3695 79.1137 28.3388 79.2761 28.3388C79.595 28.3388 79.8341 28.4246 79.9935 28.5963C80.156 28.7649 80.2372 28.9902 80.2372 29.2723V30.6748H79.8923L79.8693 30.2655C79.805 30.3943 79.7099 30.5047 79.5842 30.5966C79.4616 30.6855 79.2961 30.73 79.0876 30.73ZM79.1474 30.4035C79.2945 30.4035 79.4202 30.3652 79.5245 30.2885C79.6318 30.2119 79.713 30.1123 79.7682 29.9896C79.8234 29.867 79.8509 29.7383 79.8509 29.6034V29.5988H79.2669C79.0401 29.5988 78.8791 29.6386 78.7841 29.7183C78.6921 29.795 78.6462 29.8915 78.6462 30.008C78.6462 30.1276 78.6891 30.2242 78.7749 30.2977C78.8638 30.3682 78.988 30.4035 79.1474 30.4035ZM80.8167 31.6865V28.394H81.1662L81.203 28.771C81.2765 28.6607 81.3808 28.5611 81.5157 28.4721C81.6536 28.3832 81.8284 28.3388 82.0399 28.3388C82.2667 28.3388 82.4645 28.3909 82.6331 28.4951C82.8017 28.5994 82.932 28.7419 83.0239 28.9228C83.119 29.1037 83.1665 29.3091 83.1665 29.539C83.1665 29.7689 83.119 29.9743 83.0239 30.1552C82.932 30.333 82.8002 30.474 82.6285 30.5782C82.4599 30.6794 82.2621 30.73 82.0353 30.73C81.8483 30.73 81.6812 30.6917 81.5341 30.615C81.39 30.5384 81.2796 30.4311 81.203 30.2931V31.6865H80.8167ZM81.9939 30.3943C82.1472 30.3943 82.2821 30.359 82.3986 30.2885C82.5151 30.215 82.607 30.1138 82.6745 29.985C82.7419 29.8563 82.7756 29.7061 82.7756 29.5344C82.7756 29.3627 82.7419 29.2125 82.6745 29.0837C82.607 28.955 82.5151 28.8554 82.3986 28.7848C82.2821 28.7113 82.1472 28.6745 81.9939 28.6745C81.8406 28.6745 81.7057 28.7113 81.5892 28.7848C81.4727 28.8554 81.3808 28.955 81.3133 29.0837C81.2459 29.2125 81.2122 29.3627 81.2122 29.5344C81.2122 29.7061 81.2459 29.8563 81.3133 29.985C81.3808 30.1138 81.4727 30.215 81.5892 30.2885C81.7057 30.359 81.8406 30.3943 81.9939 30.3943ZM84.5157 30.6748C84.3072 30.6748 84.1432 30.6242 84.0236 30.5231C83.9041 30.4219 83.8443 30.2395 83.8443 29.9758V28.7205H83.4488V28.394H83.8443L83.8949 27.8468H84.2306V28.394H84.9019V28.7205H84.2306V29.9758C84.2306 30.1199 84.2597 30.218 84.3179 30.2701C84.3762 30.3192 84.4789 30.3437 84.626 30.3437H84.8652V30.6748H84.5157ZM86.3553 30.73C86.1376 30.73 85.9445 30.6809 85.7759 30.5828C85.6073 30.4817 85.4739 30.3422 85.3758 30.1644C85.2808 29.9866 85.2332 29.7766 85.2332 29.5344C85.2332 29.2953 85.2808 29.0868 85.3758 28.909C85.4708 28.7281 85.6027 28.5886 85.7713 28.4905C85.9429 28.3894 86.1407 28.3388 86.3645 28.3388C86.5852 28.3388 86.7753 28.3894 86.9347 28.4905C87.0972 28.5886 87.2213 28.7189 87.3071 28.8814C87.393 29.0439 87.4359 29.2186 87.4359 29.4056C87.4359 29.4394 87.4344 29.4731 87.4313 29.5068C87.4313 29.5405 87.4313 29.5788 87.4313 29.6218H85.6149C85.6241 29.7965 85.664 29.9421 85.7345 30.0586C85.8081 30.172 85.8985 30.2579 86.0058 30.3161C86.1162 30.3744 86.2326 30.4035 86.3553 30.4035C86.5147 30.4035 86.648 30.3667 86.7553 30.2931C86.8626 30.2196 86.9408 30.1199 86.9899 29.9942H87.3715C87.3102 30.2058 87.1922 30.382 87.0174 30.5231C86.8458 30.661 86.625 30.73 86.3553 30.73ZM86.3553 28.6653C86.1713 28.6653 86.0073 28.722 85.8632 28.8354C85.7222 28.9458 85.641 29.1083 85.6195 29.3229H87.0542C87.045 29.1175 86.9745 28.9565 86.8427 28.84C86.7109 28.7235 86.5484 28.6653 86.3553 28.6653ZM87.9479 30.6748V28.394H88.2974L88.3295 28.8308C88.4001 28.6806 88.5074 28.5611 88.6514 28.4721C88.7955 28.3832 88.9733 28.3388 89.1849 28.3388V28.7435H89.0791C88.9442 28.7435 88.82 28.768 88.7066 28.817C88.5932 28.863 88.5028 28.9427 88.4353 29.0562C88.3679 29.1696 88.3341 29.3259 88.3341 29.5252V30.6748H87.9479Z" fill="#E0E0E0"/>
</g>
<defs>
<clipPath id="clip0">
<rect width="113" height="38.3204" fill="white"/>
</clipPath>
</defs>
</svg>
