<svg width="207" height="48" viewBox="0 0 207 48" fill="none" xmlns="http://www.w3.org/2000/svg">
<rect x="1" y="1" width="205" height="46" rx="23" fill="#5865F2" stroke="#5865F2" stroke-width="2"/>
<circle cx="24" cy="24" r="24" fill="#5865F2"/>
<path d="M32.4226 16.5171C30.888 15.799 29.2645 15.2889 27.595 15C27.3871 15.376 27.1441 15.8816 26.9766 16.2839C25.1766 16.0132 23.3932 16.0132 21.6263 16.2839C21.4588 15.8817 21.2104 15.376 21.0005 15C19.3294 15.289 17.7046 15.8005 16.1693 16.5208C13.1141 21.1377 12.2859 25.6397 12.6999 30.078C14.7263 31.5912 16.6901 32.5105 18.6208 33.112C19.1006 32.4522 19.5248 31.7536 19.8889 31.0235C19.1957 30.7596 18.5274 30.4344 17.892 30.0517C18.0592 29.9277 18.2225 29.7986 18.3816 29.6644C22.2318 31.4653 26.4153 31.4653 30.2196 29.6644C30.3794 29.7977 30.5426 29.9268 30.7091 30.0517C30.0727 30.4354 29.4031 30.7613 28.7085 31.0254C29.0747 31.7585 29.4981 32.4578 29.9766 33.1139C31.9091 32.5124 33.8747 31.5932 35.9011 30.078C36.387 24.9329 35.0712 20.4721 32.4226 16.517V16.5171ZM20.4134 27.3485C19.2576 27.3485 18.3097 26.2695 18.3097 24.9555C18.3097 23.6415 19.2374 22.5607 20.4134 22.5607C21.5896 22.5607 22.5374 23.6396 22.5171 24.9555C22.519 26.2695 21.5896 27.3485 20.4134 27.3485ZM28.1876 27.3485C27.0318 27.3485 26.084 26.2695 26.084 24.9555C26.084 23.6415 27.0116 22.5607 28.1876 22.5607C29.3637 22.5607 30.3115 23.6396 30.2913 24.9555C30.2913 26.2695 29.3637 27.3485 28.1876 27.3485Z" fill="white"/>
<path d="M64.264 18.88V26.896C64.264 27.888 63.96 28.672 63.352 29.248C62.7547 29.824 61.9653 30.112 60.984 30.112C60.0027 30.112 59.208 29.824 58.6 29.248C58.0027 28.672 57.704 27.888 57.704 26.896H59.544C59.5547 27.3867 59.6773 27.776 59.912 28.064C60.1573 28.352 60.5147 28.496 60.984 28.496C61.4533 28.496 61.8107 28.352 62.056 28.064C62.3013 27.7653 62.424 27.376 62.424 26.896V18.88H64.264ZM71.0553 30.144C70.2233 30.144 69.4713 29.9573 68.7993 29.584C68.1273 29.2 67.5993 28.6667 67.2153 27.984C66.8313 27.2907 66.6393 26.4907 66.6393 25.584C66.6393 24.688 66.8366 23.8933 67.2313 23.2C67.6259 22.5067 68.1646 21.9733 68.8473 21.6C69.5299 21.2267 70.2926 21.04 71.1353 21.04C71.9779 21.04 72.7406 21.2267 73.4233 21.6C74.1059 21.9733 74.6446 22.5067 75.0393 23.2C75.4339 23.8933 75.6313 24.688 75.6313 25.584C75.6313 26.48 75.4286 27.2747 75.0233 27.968C74.6179 28.6613 74.0633 29.2 73.3593 29.584C72.6659 29.9573 71.8979 30.144 71.0553 30.144ZM71.0553 28.56C71.5246 28.56 71.9619 28.448 72.3673 28.224C72.7833 28 73.1193 27.664 73.3753 27.216C73.6313 26.768 73.7593 26.224 73.7593 25.584C73.7593 24.944 73.6366 24.4053 73.3913 23.968C73.1459 23.52 72.8206 23.184 72.4153 22.96C72.0099 22.736 71.5726 22.624 71.1033 22.624C70.6339 22.624 70.1966 22.736 69.7913 22.96C69.3966 23.184 69.0819 23.52 68.8473 23.968C68.6126 24.4053 68.4953 24.944 68.4953 25.584C68.4953 26.5333 68.7353 27.2693 69.2153 27.792C69.7059 28.304 70.3193 28.56 71.0553 28.56ZM78.3624 20.016C78.0317 20.016 77.7544 19.904 77.5304 19.68C77.3064 19.456 77.1944 19.1787 77.1944 18.848C77.1944 18.5173 77.3064 18.24 77.5304 18.016C77.7544 17.792 78.0317 17.68 78.3624 17.68C78.6824 17.68 78.9544 17.792 79.1784 18.016C79.4024 18.24 79.5144 18.5173 79.5144 18.848C79.5144 19.1787 79.4024 19.456 79.1784 19.68C78.9544 19.904 78.6824 20.016 78.3624 20.016ZM79.2584 21.184V30H77.4344V21.184H79.2584ZM86.1011 21.04C86.7945 21.04 87.4131 21.184 87.9571 21.472C88.5118 21.76 88.9438 22.1867 89.2531 22.752C89.5625 23.3173 89.7171 24 89.7171 24.8V30H87.9091V25.072C87.9091 24.2827 87.7118 23.68 87.3171 23.264C86.9225 22.8373 86.3838 22.624 85.7011 22.624C85.0185 22.624 84.4745 22.8373 84.0691 23.264C83.6745 23.68 83.4771 24.2827 83.4771 25.072V30H81.6531V21.184H83.4771V22.192C83.7758 21.8293 84.1545 21.5467 84.6131 21.344C85.0825 21.1413 85.5785 21.04 86.1011 21.04ZM100.024 30.144C99.192 30.144 98.44 29.9573 97.768 29.584C97.096 29.2 96.568 28.6667 96.184 27.984C95.8 27.2907 95.608 26.4907 95.608 25.584C95.608 24.688 95.8053 23.8933 96.2 23.2C96.5947 22.5067 97.1333 21.9733 97.816 21.6C98.4987 21.2267 99.2613 21.04 100.104 21.04C100.947 21.04 101.709 21.2267 102.392 21.6C103.075 21.9733 103.613 22.5067 104.008 23.2C104.403 23.8933 104.6 24.688 104.6 25.584C104.6 26.48 104.397 27.2747 103.992 27.968C103.587 28.6613 103.032 29.2 102.328 29.584C101.635 29.9573 100.867 30.144 100.024 30.144ZM100.024 28.56C100.493 28.56 100.931 28.448 101.336 28.224C101.752 28 102.088 27.664 102.344 27.216C102.6 26.768 102.728 26.224 102.728 25.584C102.728 24.944 102.605 24.4053 102.36 23.968C102.115 23.52 101.789 23.184 101.384 22.96C100.979 22.736 100.541 22.624 100.072 22.624C99.6027 22.624 99.1653 22.736 98.76 22.96C98.3653 23.184 98.0507 23.52 97.816 23.968C97.5813 24.4053 97.464 24.944 97.464 25.584C97.464 26.5333 97.704 27.2693 98.184 27.792C98.6747 28.304 99.288 28.56 100.024 28.56ZM114.387 21.184V30H112.563V28.96C112.275 29.3227 111.896 29.6107 111.427 29.824C110.968 30.0267 110.478 30.128 109.955 30.128C109.262 30.128 108.638 29.984 108.083 29.696C107.539 29.408 107.107 28.9813 106.787 28.416C106.478 27.8507 106.323 27.168 106.323 26.368V21.184H108.131V26.096C108.131 26.8853 108.328 27.4933 108.723 27.92C109.118 28.336 109.656 28.544 110.339 28.544C111.022 28.544 111.56 28.336 111.955 27.92C112.36 27.4933 112.563 26.8853 112.563 26.096V21.184H114.387ZM118.618 22.464C118.884 22.016 119.236 21.6693 119.674 21.424C120.122 21.168 120.65 21.04 121.258 21.04V22.928H120.794C120.079 22.928 119.535 23.1093 119.162 23.472C118.799 23.8347 118.618 24.464 118.618 25.36V30H116.794V21.184H118.618V22.464ZM130.723 18.88C131.907 18.88 132.941 19.1093 133.827 19.568C134.723 20.016 135.411 20.6667 135.891 21.52C136.381 22.3627 136.627 23.3493 136.627 24.48C136.627 25.6107 136.381 26.592 135.891 27.424C135.411 28.256 134.723 28.896 133.827 29.344C132.941 29.7813 131.907 30 130.723 30H127.091V18.88H130.723ZM130.723 28.512C132.024 28.512 133.021 28.16 133.715 27.456C134.408 26.752 134.755 25.76 134.755 24.48C134.755 23.1893 134.408 22.1813 133.715 21.456C133.021 20.7307 132.024 20.368 130.723 20.368H128.915V28.512H130.723ZM139.362 20.016C139.032 20.016 138.754 19.904 138.53 19.68C138.306 19.456 138.194 19.1787 138.194 18.848C138.194 18.5173 138.306 18.24 138.53 18.016C138.754 17.792 139.032 17.68 139.362 17.68C139.682 17.68 139.954 17.792 140.178 18.016C140.402 18.24 140.514 18.5173 140.514 18.848C140.514 19.1787 140.402 19.456 140.178 19.68C139.954 19.904 139.682 20.016 139.362 20.016ZM140.258 21.184V30H138.434V21.184H140.258ZM145.853 30.144C145.16 30.144 144.536 30.0213 143.981 29.776C143.437 29.52 143.005 29.1787 142.685 28.752C142.365 28.3147 142.194 27.8293 142.173 27.296H144.061C144.093 27.6693 144.269 27.984 144.589 28.24C144.92 28.4853 145.33 28.608 145.821 28.608C146.333 28.608 146.728 28.512 147.005 28.32C147.293 28.1173 147.437 27.8613 147.437 27.552C147.437 27.2213 147.277 26.976 146.957 26.816C146.648 26.656 146.152 26.48 145.469 26.288C144.808 26.1067 144.269 25.9307 143.853 25.76C143.437 25.5893 143.074 25.328 142.765 24.976C142.466 24.624 142.317 24.16 142.317 23.584C142.317 23.1147 142.456 22.688 142.733 22.304C143.01 21.9093 143.405 21.6 143.917 21.376C144.44 21.152 145.037 21.04 145.709 21.04C146.712 21.04 147.517 21.296 148.125 21.808C148.744 22.3093 149.074 22.9973 149.117 23.872H147.293C147.261 23.4773 147.101 23.1627 146.813 22.928C146.525 22.6933 146.136 22.576 145.645 22.576C145.165 22.576 144.797 22.6667 144.541 22.848C144.285 23.0293 144.157 23.2693 144.157 23.568C144.157 23.8027 144.242 24 144.413 24.16C144.584 24.32 144.792 24.448 145.037 24.544C145.282 24.6293 145.645 24.7413 146.125 24.88C146.765 25.0507 147.288 25.2267 147.693 25.408C148.109 25.5787 148.466 25.8347 148.765 26.176C149.064 26.5173 149.218 26.9707 149.229 27.536C149.229 28.0373 149.09 28.4853 148.813 28.88C148.536 29.2747 148.141 29.584 147.629 29.808C147.128 30.032 146.536 30.144 145.853 30.144ZM150.592 25.584C150.592 24.6773 150.773 23.8827 151.136 23.2C151.509 22.5067 152.021 21.9733 152.672 21.6C153.323 21.2267 154.069 21.04 154.912 21.04C155.979 21.04 156.859 21.296 157.552 21.808C158.256 22.3093 158.731 23.0293 158.976 23.968H157.008C156.848 23.5307 156.592 23.1893 156.24 22.944C155.888 22.6987 155.445 22.576 154.912 22.576C154.165 22.576 153.568 22.8427 153.12 23.376C152.683 23.8987 152.464 24.6347 152.464 25.584C152.464 26.5333 152.683 27.2747 153.12 27.808C153.568 28.3413 154.165 28.608 154.912 28.608C155.968 28.608 156.667 28.144 157.008 27.216H158.976C158.72 28.112 158.24 28.8267 157.536 29.36C156.832 29.8827 155.957 30.144 154.912 30.144C154.069 30.144 153.323 29.9573 152.672 29.584C152.021 29.2 151.509 28.6667 151.136 27.984C150.773 27.2907 150.592 26.4907 150.592 25.584ZM164.618 30.144C163.786 30.144 163.034 29.9573 162.362 29.584C161.69 29.2 161.162 28.6667 160.778 27.984C160.394 27.2907 160.202 26.4907 160.202 25.584C160.202 24.688 160.399 23.8933 160.794 23.2C161.188 22.5067 161.727 21.9733 162.41 21.6C163.092 21.2267 163.855 21.04 164.698 21.04C165.54 21.04 166.303 21.2267 166.986 21.6C167.668 21.9733 168.207 22.5067 168.602 23.2C168.996 23.8933 169.194 24.688 169.194 25.584C169.194 26.48 168.991 27.2747 168.586 27.968C168.18 28.6613 167.626 29.2 166.922 29.584C166.228 29.9573 165.46 30.144 164.618 30.144ZM164.618 28.56C165.087 28.56 165.524 28.448 165.93 28.224C166.346 28 166.682 27.664 166.938 27.216C167.194 26.768 167.322 26.224 167.322 25.584C167.322 24.944 167.199 24.4053 166.954 23.968C166.708 23.52 166.383 23.184 165.978 22.96C165.572 22.736 165.135 22.624 164.666 22.624C164.196 22.624 163.759 22.736 163.354 22.96C162.959 23.184 162.644 23.52 162.41 23.968C162.175 24.4053 162.058 24.944 162.058 25.584C162.058 26.5333 162.298 27.2693 162.778 27.792C163.268 28.304 163.882 28.56 164.618 28.56ZM172.821 22.464C173.088 22.016 173.44 21.6693 173.877 21.424C174.325 21.168 174.853 21.04 175.461 21.04V22.928H174.997C174.282 22.928 173.738 23.1093 173.365 23.472C173.002 23.8347 172.821 24.464 172.821 25.36V30H170.997V21.184H172.821V22.464ZM176.53 25.552C176.53 24.6667 176.711 23.8827 177.074 23.2C177.447 22.5173 177.948 21.9893 178.578 21.616C179.218 21.232 179.927 21.04 180.706 21.04C181.282 21.04 181.847 21.168 182.402 21.424C182.967 21.6693 183.415 22 183.746 22.416V18.16H185.586V30H183.746V28.672C183.447 29.0987 183.031 29.4507 182.498 29.728C181.975 30.0053 181.372 30.144 180.69 30.144C179.922 30.144 179.218 29.952 178.578 29.568C177.948 29.1733 177.447 28.6293 177.074 27.936C176.711 27.232 176.53 26.4373 176.53 25.552ZM183.746 25.584C183.746 24.976 183.618 24.448 183.362 24C183.116 23.552 182.791 23.2107 182.386 22.976C181.98 22.7413 181.543 22.624 181.074 22.624C180.604 22.624 180.167 22.7413 179.762 22.976C179.356 23.2 179.026 23.536 178.77 23.984C178.524 24.4213 178.402 24.944 178.402 25.552C178.402 26.16 178.524 26.6933 178.77 27.152C179.026 27.6107 179.356 27.9627 179.762 28.208C180.178 28.4427 180.615 28.56 181.074 28.56C181.543 28.56 181.98 28.4427 182.386 28.208C182.791 27.9733 183.116 27.632 183.362 27.184C183.618 26.7253 183.746 26.192 183.746 25.584Z" fill="white"/>
</svg>
