<svg width="24" height="19" viewBox="0 0 24 19" fill="none" xmlns="http://www.w3.org/2000/svg">
<path d="M20.4226 1.51707C18.888 0.799047 17.2645 0.288862 15.595 0C15.3871 0.375954 15.1441 0.881613 14.9766 1.28389C13.1766 1.01324 11.3932 1.01324 9.6263 1.28389C9.45885 0.881704 9.21041 0.375954 9.00054 0C7.32944 0.288995 5.70458 0.80048 4.16926 1.52082C1.1141 6.13765 0.285868 10.6397 0.699938 15.078C2.72632 16.5912 4.69009 17.5105 6.62078 18.112C7.1006 17.4522 7.52475 16.7536 7.88885 16.0235C7.19565 15.7596 6.52738 15.4344 5.89199 15.0517C6.0592 14.9277 6.22248 14.7986 6.38157 14.6644C10.2318 16.4653 14.4153 16.4653 18.2196 14.6644C18.3794 14.7977 18.5426 14.9268 18.7091 15.0517C18.0727 15.4354 17.4031 15.7613 16.7085 16.0254C17.0747 16.7585 17.4981 17.4578 17.9766 18.1139C19.9091 17.5124 21.8747 16.5932 23.9011 15.078C24.387 9.93293 23.0712 5.47212 20.4226 1.51698V1.51707ZM8.41344 12.3485C7.2576 12.3485 6.30972 11.2695 6.30972 9.95551C6.30972 8.64154 7.2374 7.56066 8.41344 7.56066C9.58956 7.56066 10.5374 8.63962 10.5171 9.95551C10.519 11.2695 9.58956 12.3485 8.41344 12.3485ZM16.1876 12.3485C15.0318 12.3485 14.084 11.2695 14.084 9.95551C14.084 8.64154 15.0116 7.56066 16.1876 7.56066C17.3637 7.56066 18.3115 8.63962 18.2913 9.95551C18.2913 11.2695 17.3637 12.3485 16.1876 12.3485Z" fill="white"/>
</svg>
