<svg width="41" height="40" viewBox="0 0 41 40" fill="none" xmlns="http://www.w3.org/2000/svg">
<path d="M13.9548 15.197C15.1632 15.197 16.1428 14.2174 16.1428 13.009C16.1428 11.8006 15.1632 10.821 13.9548 10.821C12.7464 10.821 11.7668 11.8006 11.7668 13.009C11.7668 14.2174 12.7464 15.197 13.9548 15.197Z" fill="#E0E0E0"/>
<path d="M18.2089 16.8549V28.9939H21.9779V22.9909C21.9779 21.4069 22.2759 19.8729 24.2399 19.8729C26.1769 19.8729 26.2009 21.6839 26.2009 23.0909V28.9949H29.9719V22.3379C29.9719 19.0679 29.2679 16.5549 25.4459 16.5549C23.6109 16.5549 22.3809 17.5619 21.8779 18.5149H21.8269V16.8549H18.2089ZM12.0669 16.8549H15.8419V28.9939H12.0669V16.8549Z" fill="#E0E0E0"/>
</svg>
