<svg width="41" height="40" viewBox="0 0 41 40" fill="none" xmlns="http://www.w3.org/2000/svg">
<path d="M20.972 15.193C18.3119 15.193 16.165 17.3399 16.165 20C16.165 22.6602 18.3119 24.807 20.972 24.807C23.6322 24.807 25.7791 22.6602 25.7791 20C25.7791 17.3399 23.6322 15.193 20.972 15.193ZM20.972 23.1242C19.2517 23.1242 17.8478 21.7203 17.8478 20C17.8478 18.2797 19.2517 16.8758 20.972 16.8758C22.6923 16.8758 24.0963 18.2797 24.0963 20C24.0963 21.7203 22.6923 23.1242 20.972 23.1242ZM25.9759 13.8758C25.3548 13.8758 24.8533 14.3774 24.8533 14.9985C24.8533 15.6195 25.3548 16.1211 25.9759 16.1211C26.597 16.1211 27.0986 15.6219 27.0986 14.9985C27.0988 14.851 27.0699 14.7049 27.0135 14.5686C26.9572 14.4323 26.8745 14.3085 26.7702 14.2042C26.6659 14.0999 26.5421 14.0172 26.4058 13.9609C26.2695 13.9045 26.1234 13.8756 25.9759 13.8758ZM30.3423 20C30.3423 18.7063 30.3541 17.4242 30.2814 16.1328C30.2088 14.6328 29.8666 13.3016 28.7697 12.2047C27.6705 11.1055 26.3416 10.7656 24.8416 10.693C23.5478 10.6203 22.2658 10.632 20.9744 10.632C19.6806 10.632 18.3986 10.6203 17.1072 10.693C15.6072 10.7656 14.2759 11.1078 13.1791 12.2047C12.0798 13.3039 11.74 14.6328 11.6673 16.1328C11.5947 17.4266 11.6064 18.7086 11.6064 20C11.6064 21.2914 11.5947 22.5758 11.6673 23.8672C11.74 25.3672 12.0822 26.6985 13.1791 27.7953C14.2783 28.8945 15.6072 29.2344 17.1072 29.307C18.4009 29.3797 19.683 29.368 20.9744 29.368C22.2681 29.368 23.5502 29.3797 24.8416 29.307C26.3416 29.2344 27.6728 28.8922 28.7697 27.7953C29.8689 26.6961 30.2088 25.3672 30.2814 23.8672C30.3564 22.5758 30.3423 21.2938 30.3423 20ZM28.2798 25.5266C28.1088 25.9531 27.9025 26.2719 27.572 26.6C27.2416 26.9305 26.9252 27.1367 26.4986 27.3078C25.2658 27.7977 22.3384 27.6875 20.972 27.6875C19.6056 27.6875 16.6759 27.7977 15.4431 27.3102C15.0166 27.1391 14.6978 26.9328 14.3697 26.6024C14.0392 26.2719 13.833 25.9555 13.6619 25.5289C13.1744 24.2938 13.2845 21.3664 13.2845 20C13.2845 18.6336 13.1744 15.7039 13.6619 14.4711C13.833 14.0445 14.0392 13.7258 14.3697 13.3977C14.7002 13.0695 15.0166 12.861 15.4431 12.6899C16.6759 12.2024 19.6056 12.3125 20.972 12.3125C22.3384 12.3125 25.2681 12.2024 26.5009 12.6899C26.9275 12.861 27.2463 13.0672 27.5744 13.3977C27.9048 13.7281 28.1111 14.0445 28.2822 14.4711C28.7697 15.7039 28.6595 18.6336 28.6595 20C28.6595 21.3664 28.7697 24.2938 28.2798 25.5266Z" fill="#E0E0E0"/>
</svg>
