<svg width="41" height="40" viewBox="0 0 41 40" fill="none" xmlns="http://www.w3.org/2000/svg">
<path d="M27.788 16.0641C27.26 16.3041 26.732 16.4481 26.108 16.5441C26.684 16.1601 27.164 15.6321 27.404 14.9601C26.828 15.2961 26.204 15.5361 25.58 15.6801C25.052 15.1041 24.284 14.7681 23.468 14.7681C21.884 14.7681 20.54 16.0641 20.54 17.6961C20.54 17.9361 20.588 18.1281 20.636 18.3681C18.236 18.2721 16.076 17.0721 14.636 15.3441C14.396 15.6801 14.252 16.1601 14.252 16.6881C14.252 17.6961 14.78 18.6081 15.548 19.0881C15.068 19.0881 14.636 18.9441 14.252 18.7041V18.7521C14.252 20.1441 15.26 21.3441 16.604 21.5841C16.364 21.6321 16.124 21.6801 15.836 21.6801C15.644 21.6801 15.452 21.6801 15.308 21.6321C15.692 22.7841 16.748 23.6481 18.044 23.6481C17.036 24.4161 15.788 24.8961 14.444 24.8961C14.204 24.8961 13.964 24.8961 13.772 24.8481C14.924 25.7601 16.46 26.2401 18.092 26.2401C23.42 26.2401 26.348 21.8241 26.348 17.9841V17.6001C26.924 17.1681 27.404 16.6881 27.788 16.0641Z" fill="#E0E0E0"/>
</svg>
