<svg width="191" height="63" viewBox="0 0 191 63" fill="none" xmlns="http://www.w3.org/2000/svg">
<path d="M30.4635 10.9362C30.9362 10.9362 31.3896 10.7484 31.7239 10.4141C32.0582 10.0798 32.246 9.62638 32.246 9.15361V2.89682C32.246 2.42406 32.0582 1.97065 31.7239 1.63636C31.3896 1.30206 30.9362 1.11426 30.4635 1.11426C29.9907 1.11426 29.5373 1.30206 29.203 1.63636C28.8687 1.97065 28.6809 2.42406 28.6809 2.89682V9.15361C28.6809 9.62638 28.8687 10.0798 29.203 10.4141C29.5373 10.7484 29.9907 10.9362 30.4635 10.9362Z" fill="#F2C94C"/>
<path d="M30.4635 52.2205C29.9907 52.2205 29.5373 52.4083 29.203 52.7426C28.8687 53.0769 28.6809 53.5303 28.6809 54.003V60.2598C28.6809 60.7326 28.8687 61.186 29.203 61.5203C29.5373 61.8546 29.9907 62.0424 30.4635 62.0424C30.9362 62.0424 31.3896 61.8546 31.7239 61.5203C32.0582 61.186 32.246 60.7326 32.246 60.2598V54.003C32.246 53.5303 32.0582 53.0769 31.7239 52.7426C31.3896 52.4083 30.9362 52.2205 30.4635 52.2205Z" fill="#F2C94C"/>
<path d="M13.3516 16.9793C13.6926 17.2713 14.1312 17.4239 14.5799 17.4066C15.0285 17.3892 15.4541 17.2032 15.7715 16.8858C16.089 16.5683 16.275 16.1427 16.2923 15.6941C16.3096 15.2455 16.157 14.8068 15.865 14.4658L11.4442 10.0451C11.1032 9.75305 10.6646 9.60046 10.216 9.61778C9.76733 9.63511 9.34176 9.82109 9.0243 10.1386C8.70683 10.456 8.52086 10.8816 8.50353 11.3302C8.4862 11.7788 8.6388 12.2175 8.93083 12.5585L13.3516 16.9793Z" fill="#F2C94C"/>
<path d="M47.5763 46.1774C47.2353 45.8854 46.7967 45.7328 46.348 45.7501C45.8994 45.7674 45.4738 45.9534 45.1564 46.2709C44.8389 46.5883 44.6529 47.0139 44.6356 47.4625C44.6183 47.9112 44.7709 48.3498 45.0629 48.6908L49.4837 53.1116C49.8247 53.4036 50.2633 53.5562 50.7119 53.5389C51.1606 53.5215 51.5861 53.3356 51.9036 53.0181C52.2211 52.7006 52.407 52.2751 52.4244 51.8264C52.4417 51.3778 52.2891 50.9392 51.9971 50.5982L47.5763 46.1774Z" fill="#F2C94C"/>
<path d="M9.82192 31.5782C9.82192 31.1055 9.63411 30.652 9.29982 30.3178C8.96552 29.9835 8.51212 29.7957 8.03936 29.7957H1.78256C1.3098 29.7957 0.856396 29.9835 0.522101 30.3178C0.187805 30.652 0 31.1055 0 31.5782C0 32.051 0.187805 32.5044 0.522101 32.8387C0.856396 33.173 1.3098 33.3608 1.78256 33.3608H8.03936C8.51212 33.3608 8.96552 33.173 9.29982 32.8387C9.63411 32.5044 9.82192 32.051 9.82192 31.5782Z" fill="#F2C94C"/>
<path d="M59.1456 29.7957H52.8888C52.416 29.7957 51.9626 29.9835 51.6283 30.3178C51.294 30.652 51.1062 31.1055 51.1062 31.5782C51.1062 32.051 51.294 32.5044 51.6283 32.8387C51.9626 33.173 52.416 33.3608 52.8888 33.3608H59.1456C59.6183 33.3608 60.0717 33.173 60.406 32.8387C60.7403 32.5044 60.9281 32.051 60.9281 31.5782C60.9281 31.1055 60.7403 30.652 60.406 30.3178C60.0717 29.9835 59.6183 29.7957 59.1456 29.7957Z" fill="#F2C94C"/>
<path d="M13.3516 46.1774L8.93083 50.5982C8.6388 50.9392 8.4862 51.3778 8.50353 51.8264C8.52086 52.2751 8.70683 52.7006 9.0243 53.0181C9.34176 53.3356 9.76733 53.5215 10.216 53.5389C10.6646 53.5562 11.1032 53.4036 11.4442 53.1116L15.865 48.6908C16.157 48.3498 16.3096 47.9112 16.2923 47.4625C16.275 47.0139 16.089 46.5883 15.7715 46.2709C15.4541 45.9534 15.0285 45.7674 14.5799 45.7501C14.1312 45.7328 13.6926 45.8854 13.3516 46.1774Z" fill="#F2C94C"/>
<path d="M47.5763 16.9793L51.9971 12.5585C52.2891 12.2175 52.4417 11.7788 52.4244 11.3302C52.407 10.8816 52.2211 10.456 51.9036 10.1386C51.5861 9.82109 51.1606 9.63511 50.7119 9.61778C50.2633 9.60046 49.8247 9.75305 49.4837 10.0451L45.0629 14.4658C44.7709 14.8068 44.6183 15.2455 44.6356 15.6941C44.6529 16.1427 44.8389 16.5683 45.1564 16.8858C45.4738 17.2032 45.8994 17.3892 46.348 17.4066C46.7967 17.4239 47.2353 17.2713 47.5763 16.9793Z" fill="#F2C94C"/>
<path d="M30.4638 49.4039C40.3086 49.4039 48.2894 41.4231 48.2894 31.5783C48.2894 21.7335 40.3086 13.7527 30.4638 13.7527C20.619 13.7527 12.6382 21.7335 12.6382 31.5783C12.6382 41.4231 20.619 49.4039 30.4638 49.4039Z" fill="url(#paint0_linear)"/>
<path d="M24.8196 34.2993C24.77 33.822 24.7617 33.3418 24.7644 32.8644C24.7644 32.1967 24.7644 31.5316 24.7644 30.8639C24.7644 30.6707 24.7562 30.4775 24.7203 30.2871C24.5961 29.5945 24.2595 29.0454 23.6441 28.6784C23.2136 28.4218 22.7418 28.3059 22.2506 28.2507C21.8256 28.2038 21.4034 28.2176 20.9813 28.2534C20.4018 28.3031 19.8361 28.419 19.2925 28.6287C19.1655 28.6784 19.1628 28.6784 19.1655 28.8191C19.1738 29.2275 19.1849 29.6331 19.1959 30.0415C19.1959 30.0747 19.1766 30.1188 19.2263 30.1464C19.3256 30.1023 19.4222 30.0526 19.5243 30.0084C20.1948 29.7297 20.8985 29.658 21.6159 29.7104C21.798 29.7242 21.9746 29.7711 22.1402 29.8484C22.4907 30.0084 22.6617 30.2899 22.7004 30.6652C22.7142 30.8004 22.7031 30.8087 22.5707 30.7893C21.9167 30.6928 21.2627 30.701 20.6115 30.7976C20.1617 30.8639 19.7257 30.9825 19.3284 31.2115C18.8234 31.5013 18.4978 31.9262 18.3984 32.5085C18.3901 32.5609 18.3929 32.6216 18.335 32.652C18.335 32.8175 18.335 32.9831 18.335 33.1487C18.3791 33.1818 18.3874 33.2314 18.3957 33.2811C18.5005 33.9185 18.8565 34.3628 19.4305 34.6443C19.8333 34.8429 20.2666 34.9175 20.7081 34.9285C21.0116 34.9368 21.3124 34.8981 21.6021 34.7933C22.0685 34.6277 22.4106 34.3131 22.6893 33.9158C22.7225 33.8689 22.739 33.8082 22.8273 33.7778C22.8273 33.8523 22.8246 33.9103 22.8273 33.9682C22.8384 34.2055 22.8549 34.4401 22.8632 34.6774C22.8659 34.7464 22.888 34.7822 22.9598 34.774C22.9818 34.7712 23.0039 34.774 23.026 34.774C23.5944 34.774 24.1629 34.774 24.7286 34.774C24.7782 34.774 24.8279 34.785 24.8776 34.7519C24.861 34.6029 24.8362 34.4511 24.8196 34.2993ZM20.9895 33.408C20.7357 33.3473 20.537 33.2038 20.4542 32.9417C20.3604 32.6464 20.4763 32.3208 20.7357 32.1415C20.9205 32.0118 21.133 31.9538 21.3538 31.9262C21.5166 31.9042 21.6821 31.8848 21.8477 31.8931C22.1071 31.9042 22.3637 31.918 22.6231 31.929C22.6893 31.9318 22.7087 31.9593 22.7059 32.0201C22.6728 32.801 22.0271 33.6619 20.9895 33.408Z" fill="white"/>
<path d="M30.7328 30.176C30.6555 30.1374 30.5838 30.1015 30.5065 30.0684C30.0098 29.8476 29.4911 29.7759 28.9585 29.9C28.2824 30.0601 27.8244 30.5899 27.7306 31.277C27.6836 31.6164 27.6947 31.9503 27.8354 32.2649C28.1003 32.8582 28.5805 33.1783 29.2068 33.2804C29.7311 33.3631 30.2389 33.2776 30.7301 33.0872C30.7797 33.0679 30.8294 33.0458 30.8735 33.0292C30.9149 33.0403 30.9067 33.0651 30.9094 33.0844C30.9232 33.5646 30.9342 34.042 30.9508 34.5221C30.9536 34.6159 30.9232 34.6573 30.8322 34.6849C30.4872 34.787 30.1368 34.8532 29.7808 34.8946C29.1047 34.9719 28.437 34.9305 27.7857 34.7346C27.0462 34.5111 26.4253 34.1137 25.9783 33.4735C25.6693 33.0292 25.5065 32.5325 25.4457 31.9972C25.3878 31.4619 25.4347 30.9404 25.6058 30.4326C25.9148 29.5275 26.5412 28.9149 27.416 28.5534C28.0838 28.2775 28.7847 28.192 29.5049 28.2416C29.9381 28.272 30.3575 28.3492 30.7576 28.5176C30.9149 28.5838 30.9094 28.5838 30.8929 28.7466C30.8515 29.1467 30.8128 29.5468 30.7742 29.947C30.7687 30.0187 30.7714 30.096 30.7328 30.176Z" fill="white"/>
<path d="M33.7272 29.5278C33.7907 29.5223 33.7989 29.4836 33.8127 29.456C34.1632 28.802 34.7234 28.435 35.4325 28.2888C35.943 28.1839 36.4508 28.1867 36.9502 28.3605C37.4359 28.5289 37.7974 28.8407 38.0292 29.3043C38.0512 29.3484 38.065 29.3981 38.1119 29.434C38.2278 29.2822 38.3354 29.1221 38.4707 28.9842C38.8763 28.5675 39.373 28.3412 39.9387 28.2557C40.325 28.1977 40.7086 28.217 41.0894 28.2888C41.8206 28.4295 42.287 28.8628 42.4884 29.5802C42.5657 29.8506 42.6098 30.1293 42.6236 30.4108C42.6402 30.7088 42.6484 31.0041 42.6484 31.3021C42.6457 32.4003 42.6484 33.4958 42.6484 34.5941C42.6484 34.7872 42.665 34.7762 42.4718 34.7762C41.8482 34.7762 41.2246 34.7762 40.6037 34.7762C40.5706 34.7762 40.5375 34.7762 40.5044 34.7762C40.4547 34.7762 40.4381 34.7486 40.4381 34.7045C40.4381 34.6603 40.4381 34.6162 40.4381 34.572C40.4381 33.4848 40.4381 32.4003 40.4381 31.3131C40.4381 31.1365 40.4188 30.9627 40.3774 30.7888C40.2229 30.1514 39.7566 29.9444 39.1522 30.1293C38.8846 30.2121 38.7025 30.3998 38.57 30.6371C38.432 30.8882 38.3658 31.1586 38.3272 31.4401C38.2941 31.6746 38.2885 31.9119 38.2885 32.1492C38.2913 32.9605 38.2885 33.769 38.2885 34.5803C38.2885 34.6189 38.2858 34.6576 38.2885 34.6962C38.2913 34.7514 38.2665 34.779 38.2113 34.7762C38.1782 34.7762 38.145 34.7762 38.1119 34.7762C37.4938 34.7762 36.8757 34.7762 36.2604 34.7762C36.2328 34.7762 36.2052 34.7734 36.1776 34.7762C36.1113 34.7817 36.0727 34.7597 36.0782 34.6851C36.081 34.6465 36.0782 34.6079 36.0782 34.5693C36.0782 33.5041 36.0782 32.4417 36.0782 31.3766C36.0782 31.1282 36.0589 30.8799 35.9734 30.6453C35.874 30.3722 35.7057 30.1569 35.4077 30.0935C35.0379 30.0134 34.5909 30.1073 34.315 30.477C34.1328 30.7226 34.0418 31.0041 33.9893 31.2993C33.9452 31.5394 33.9259 31.7795 33.9259 32.0223C33.9259 32.8556 33.9259 33.6862 33.9259 34.5196C33.9259 34.5582 33.9259 34.5968 33.9259 34.6355C33.9231 34.7762 33.9231 34.779 33.7796 34.779C33.1394 34.779 32.4993 34.779 31.8618 34.779C31.7183 34.779 31.7156 34.7762 31.7156 34.6355C31.7156 32.6018 31.7156 30.5653 31.7156 28.5316C31.7156 28.3798 31.7183 28.3798 31.8729 28.3798C32.4413 28.3798 33.0097 28.3798 33.5754 28.3798C33.7272 28.3798 33.7272 28.3826 33.7272 28.5344C33.7272 28.86 33.7272 29.1884 33.7272 29.5278Z" fill="white"/>
<path d="M80.6595 27.1161C79.4526 27.1161 78.3867 26.9124 77.4619 26.5048C76.5371 26.0816 75.8083 25.486 75.2753 24.7179C74.7424 23.9342 74.4681 22.9859 74.4524 21.873H77.6265C77.6578 22.6411 77.9321 23.2915 78.4494 23.8245C78.9823 24.3417 79.7112 24.6004 80.636 24.6004C81.4354 24.6004 82.0702 24.4123 82.5404 24.0361C83.0107 23.6442 83.2458 23.127 83.2458 22.4843C83.2458 21.8103 83.0342 21.2852 82.611 20.909C82.2034 20.5328 81.6548 20.2272 80.9652 19.9921C80.2755 19.757 79.5388 19.5062 78.7551 19.2397C77.4854 18.8008 76.5136 18.2365 75.8396 17.5468C75.1813 16.8572 74.8521 15.9402 74.8521 14.796C74.8364 13.8242 75.0637 12.9934 75.534 12.3037C76.0199 11.5984 76.6782 11.0576 77.5089 10.6814C78.3397 10.2896 79.2958 10.0936 80.3774 10.0936C81.4746 10.0936 82.4386 10.2896 83.2693 10.6814C84.1157 11.0733 84.7741 11.6219 85.2443 12.3272C85.7302 13.0326 85.9888 13.8712 86.0202 14.843H82.7991C82.7834 14.263 82.5561 13.7536 82.1172 13.3147C81.694 12.8602 81.0984 12.6329 80.3303 12.6329C79.672 12.6172 79.1156 12.7818 78.661 13.1266C78.2221 13.4558 78.0027 13.9417 78.0027 14.5844C78.0027 15.133 78.1751 15.5719 78.5199 15.901C78.8648 16.2145 79.335 16.481 79.9306 16.7004C80.5263 16.9199 81.2081 17.155 81.9762 17.4058C82.7912 17.6879 83.5358 18.0171 84.2098 18.3933C84.8838 18.7695 85.4246 19.271 85.8321 19.898C86.2396 20.5093 86.4434 21.3009 86.4434 22.2727C86.4434 23.1348 86.224 23.9342 85.7851 24.6709C85.3462 25.4076 84.6957 26.0032 83.8336 26.4578C82.9715 26.8967 81.9135 27.1161 80.6595 27.1161ZM93.3718 27.1161C91.9141 27.1161 90.7855 26.6616 89.9861 25.7524C89.2024 24.8433 88.8106 23.511 88.8106 21.7554V15.1722H91.7965V21.4733C91.7965 22.4765 92.0003 23.2445 92.4078 23.7775C92.8154 24.3104 93.458 24.5769 94.3358 24.5769C95.1666 24.5769 95.8484 24.279 96.3813 23.6834C96.9299 23.0878 97.2042 22.257 97.2042 21.1912V15.1722H100.214V26.834H97.5569L97.3218 24.859C96.9613 25.5487 96.4362 26.0973 95.7465 26.5048C95.0725 26.9124 94.2809 27.1161 93.3718 27.1161ZM103.303 26.834V15.1722H105.96L106.219 16.7474C106.595 16.1832 107.089 15.7364 107.7 15.4073C108.327 15.0624 109.048 14.89 109.863 14.89C111.665 14.89 112.943 15.5875 113.695 16.9826C114.119 16.3399 114.683 15.8305 115.388 15.4543C116.109 15.0781 116.893 14.89 117.739 14.89C119.26 14.89 120.428 15.3446 121.243 16.2537C122.058 17.1628 122.465 18.4952 122.465 20.2507V26.834H119.456V20.5328C119.456 19.5297 119.26 18.7616 118.868 18.2287C118.492 17.6958 117.904 17.4293 117.105 17.4293C116.289 17.4293 115.631 17.7271 115.13 18.3227C114.644 18.9184 114.401 19.7491 114.401 20.815V26.834H111.391V20.5328C111.391 19.5297 111.195 18.7616 110.803 18.2287C110.412 17.6958 109.808 17.4293 108.993 17.4293C108.194 17.4293 107.543 17.7271 107.042 18.3227C106.556 18.9184 106.313 19.7491 106.313 20.815V26.834H103.303ZM125.322 26.834V15.1722H127.979L128.238 16.7474C128.614 16.1832 129.108 15.7364 129.719 15.4073C130.346 15.0624 131.067 14.89 131.882 14.89C133.685 14.89 134.962 15.5875 135.715 16.9826C136.138 16.3399 136.702 15.8305 137.407 15.4543C138.128 15.0781 138.912 14.89 139.759 14.89C141.279 14.89 142.447 15.3446 143.262 16.2537C144.077 17.1628 144.485 18.4952 144.485 20.2507V26.834H141.475V20.5328C141.475 19.5297 141.279 18.7616 140.887 18.2287C140.511 17.6958 139.923 17.4293 139.124 17.4293C138.309 17.4293 137.65 17.7271 137.149 18.3227C136.663 18.9184 136.42 19.7491 136.42 20.815V26.834H133.41V20.5328C133.41 19.5297 133.215 18.7616 132.823 18.2287C132.431 17.6958 131.827 17.4293 131.012 17.4293C130.213 17.4293 129.562 17.7271 129.061 18.3227C128.575 18.9184 128.332 19.7491 128.332 20.815V26.834H125.322ZM153.008 27.1161C151.832 27.1161 150.79 26.8653 149.881 26.3637C148.972 25.8622 148.259 25.1568 147.741 24.2477C147.224 23.3386 146.966 22.2884 146.966 21.0971C146.966 19.8902 147.216 18.8165 147.718 17.876C148.235 16.9355 148.941 16.2067 149.834 15.6894C150.743 15.1565 151.809 14.89 153.032 14.89C154.176 14.89 155.187 15.1408 156.065 15.6424C156.942 16.144 157.624 16.8337 158.11 17.7114C158.612 18.5735 158.862 19.5375 158.862 20.6034C158.862 20.7758 158.855 20.9561 158.839 21.1441C158.839 21.3322 158.831 21.5282 158.815 21.7319H149.952C150.014 22.6411 150.328 23.3542 150.892 23.8715C151.472 24.3888 152.169 24.6474 152.985 24.6474C153.596 24.6474 154.105 24.5142 154.513 24.2477C154.936 23.9656 155.25 23.605 155.453 23.1662H158.51C158.29 23.9029 157.922 24.5769 157.405 25.1882C156.903 25.7838 156.276 26.254 155.524 26.5989C154.787 26.9437 153.949 27.1161 153.008 27.1161ZM153.032 17.3352C152.295 17.3352 151.644 17.5468 151.08 17.9701C150.516 18.3776 150.155 19.0046 149.999 19.851H155.806C155.759 19.0829 155.477 18.4716 154.96 18.0171C154.442 17.5625 153.8 17.3352 153.032 17.3352ZM161.394 26.834V15.1722H164.074L164.356 17.3588C164.779 16.6064 165.351 16.0107 166.073 15.5719C166.809 15.1173 167.671 14.89 168.659 14.89V18.0641H167.812C167.154 18.0641 166.566 18.166 166.049 18.3698C165.532 18.5735 165.124 18.9262 164.826 19.4278C164.544 19.9294 164.403 20.6269 164.403 21.5203V26.834H161.394ZM75.0402 51.834V35.3758H81.647C83.3555 35.3758 84.6565 35.7755 85.55 36.5749C86.4591 37.3586 86.9136 38.3696 86.9136 39.6079C86.9136 40.6424 86.6315 41.4731 86.0672 42.1001C85.5186 42.7114 84.8446 43.1268 84.0452 43.3462C84.9857 43.5343 85.7616 44.0046 86.3729 44.757C86.9842 45.4937 87.2898 46.3557 87.2898 47.3432C87.2898 48.6442 86.8196 49.7179 85.8791 50.5644C84.9386 51.4108 83.6063 51.834 81.8821 51.834H75.0402ZM78.0497 42.2882H81.2003C82.0467 42.2882 82.6972 42.0923 83.1518 41.7004C83.6063 41.3086 83.8336 40.7521 83.8336 40.0311C83.8336 39.3414 83.6063 38.8006 83.1518 38.4088C82.7129 38.0012 82.0467 37.7975 81.1533 37.7975H78.0497V42.2882ZM78.0497 49.3888H81.4119C82.3053 49.3888 82.995 49.185 83.4809 48.7775C83.9825 48.3542 84.2333 47.7665 84.2333 47.0141C84.2333 46.246 83.9747 45.6426 83.4574 45.2037C82.9401 44.7648 82.2426 44.5453 81.3649 44.5453H78.0497V49.3888ZM95.3981 52.1161C94.2695 52.1161 93.2507 51.8575 92.3415 51.3402C91.4481 50.823 90.7349 50.1098 90.202 49.2007C89.6847 48.2759 89.4261 47.21 89.4261 46.0031C89.4261 44.7961 89.6925 43.7381 90.2255 42.829C90.7584 41.9042 91.4716 41.1832 92.365 40.6659C93.2742 40.1487 94.293 39.89 95.4216 39.89C96.5345 39.89 97.5376 40.1487 98.4311 40.6659C99.3402 41.1832 100.053 41.9042 100.571 42.829C101.104 43.7381 101.37 44.7961 101.37 46.0031C101.37 47.21 101.104 48.2759 100.571 49.2007C100.053 50.1098 99.3402 50.823 98.4311 51.3402C97.522 51.8575 96.5109 52.1161 95.3981 52.1161ZM95.3981 49.5063C96.1818 49.5063 96.8636 49.2163 97.4436 48.6364C98.0235 48.0408 98.3135 47.163 98.3135 46.0031C98.3135 44.8432 98.0235 43.9732 97.4436 43.3933C96.8636 42.7976 96.1896 42.4998 95.4216 42.4998C94.6222 42.4998 93.9325 42.7976 93.3525 43.3933C92.7883 43.9732 92.5061 44.8432 92.5061 46.0031C92.5061 47.163 92.7883 48.0408 93.3525 48.6364C93.9325 49.2163 94.6143 49.5063 95.3981 49.5063ZM109.657 52.1161C108.528 52.1161 107.509 51.8575 106.6 51.3402C105.707 50.823 104.993 50.1098 104.461 49.2007C103.943 48.2759 103.685 47.21 103.685 46.0031C103.685 44.7961 103.951 43.7381 104.484 42.829C105.017 41.9042 105.73 41.1832 106.624 40.6659C107.533 40.1487 108.552 39.89 109.68 39.89C110.793 39.89 111.796 40.1487 112.69 40.6659C113.599 41.1832 114.312 41.9042 114.829 42.829C115.362 43.7381 115.629 44.7961 115.629 46.0031C115.629 47.21 115.362 48.2759 114.829 49.2007C114.312 50.1098 113.599 50.823 112.69 51.3402C111.781 51.8575 110.77 52.1161 109.657 52.1161ZM109.657 49.5063C110.44 49.5063 111.122 49.2163 111.702 48.6364C112.282 48.0408 112.572 47.163 112.572 46.0031C112.572 44.8432 112.282 43.9732 111.702 43.3933C111.122 42.7976 110.448 42.4998 109.68 42.4998C108.881 42.4998 108.191 42.7976 107.611 43.3933C107.047 43.9732 106.765 44.8432 106.765 46.0031C106.765 47.163 107.047 48.0408 107.611 48.6364C108.191 49.2163 108.873 49.5063 109.657 49.5063ZM123.056 51.834C121.834 51.834 120.854 51.5362 120.117 50.9405C119.381 50.3449 119.012 49.2869 119.012 47.7665V42.6879H117.014V40.1722H119.012L119.365 37.0451H122.022V40.1722H125.172V42.6879H122.022V47.79C122.022 48.3542 122.139 48.7461 122.374 48.9656C122.625 49.1693 123.048 49.2712 123.644 49.2712H125.102V51.834H123.056ZM133.171 52.1161C131.98 52.1161 130.93 51.8575 130.021 51.3402C129.111 50.823 128.39 50.102 127.857 49.1772C127.34 48.2524 127.082 47.1943 127.082 46.0031C127.082 44.8118 127.34 43.7538 127.857 42.829C128.39 41.9042 129.111 41.1832 130.021 40.6659C130.93 40.1487 131.98 39.89 133.171 39.89C134.66 39.89 135.914 40.2819 136.933 41.0656C137.952 41.8337 138.602 42.8995 138.884 44.2632H135.71C135.554 43.6989 135.24 43.26 134.77 42.9465C134.315 42.6174 133.775 42.4528 133.148 42.4528C132.317 42.4528 131.612 42.7663 131.032 43.3933C130.452 44.0203 130.162 44.8902 130.162 46.0031C130.162 47.116 130.452 47.9859 131.032 48.6129C131.612 49.2399 132.317 49.5533 133.148 49.5533C133.775 49.5533 134.315 49.3966 134.77 49.0831C135.24 48.7696 135.554 48.3229 135.71 47.7429H138.884C138.602 49.0596 137.952 50.1176 136.933 50.917C135.914 51.7164 134.66 52.1161 133.171 52.1161ZM145.576 52.1161C144.573 52.1161 143.75 51.9594 143.107 51.6459C142.465 51.3167 141.987 50.8857 141.673 50.3527C141.36 49.8198 141.203 49.232 141.203 48.5894C141.203 47.5078 141.626 46.6301 142.473 45.9561C143.319 45.282 144.589 44.945 146.281 44.945H149.244V44.6629C149.244 43.8635 149.017 43.2757 148.562 42.8995C148.108 42.5233 147.543 42.3352 146.869 42.3352C146.258 42.3352 145.725 42.4842 145.27 42.782C144.816 43.0641 144.534 43.4873 144.424 44.0516H141.485C141.563 43.2052 141.846 42.4685 142.332 41.8415C142.833 41.2145 143.476 40.7364 144.259 40.4073C145.043 40.0624 145.921 39.89 146.893 39.89C148.554 39.89 149.863 40.3054 150.819 41.1361C151.775 41.9669 152.253 43.1425 152.253 44.6629V51.834H149.691L149.409 49.953C149.064 50.58 148.578 51.0973 147.951 51.5048C147.34 51.9124 146.548 52.1161 145.576 52.1161ZM146.258 49.765C147.12 49.765 147.786 49.4828 148.256 48.9185C148.742 48.3542 149.048 47.6567 149.173 46.826H146.611C145.811 46.826 145.239 46.9749 144.894 47.2727C144.549 47.5548 144.377 47.9075 144.377 48.3307C144.377 48.7853 144.549 49.138 144.894 49.3888C145.239 49.6396 145.694 49.765 146.258 49.765ZM155.125 51.834V40.1722H157.782L158.041 41.7474C158.417 41.1832 158.911 40.7364 159.522 40.4073C160.149 40.0624 160.87 39.89 161.685 39.89C163.488 39.89 164.765 40.5875 165.518 41.9826C165.941 41.3399 166.505 40.8305 167.21 40.4543C167.931 40.0781 168.715 39.89 169.562 39.89C171.082 39.89 172.25 40.3446 173.065 41.2537C173.88 42.1628 174.287 43.4952 174.287 45.2507V51.834H171.278V45.5328C171.278 44.5297 171.082 43.7616 170.69 43.2287C170.314 42.6958 169.726 42.4293 168.927 42.4293C168.112 42.4293 167.453 42.7271 166.952 43.3227C166.466 43.9184 166.223 44.7491 166.223 45.815V51.834H163.213V45.5328C163.213 44.5297 163.018 43.7616 162.626 43.2287C162.234 42.6958 161.63 42.4293 160.815 42.4293C160.016 42.4293 159.365 42.7271 158.864 43.3227C158.378 43.9184 158.135 44.7491 158.135 45.815V51.834H155.125ZM177.145 57.0066V40.1722H179.825L180.154 41.8415C180.53 41.3242 181.024 40.8697 181.635 40.4778C182.262 40.086 183.07 39.89 184.057 39.89C185.154 39.89 186.134 40.1565 186.996 40.6894C187.858 41.2224 188.54 41.9512 189.042 42.876C189.543 43.8008 189.794 44.851 189.794 46.0266C189.794 47.2022 189.543 48.2524 189.042 49.1772C188.54 50.0863 187.858 50.8073 186.996 51.3402C186.134 51.8575 185.154 52.1161 184.057 52.1161C183.179 52.1161 182.411 51.9515 181.753 51.6224C181.095 51.2932 180.562 50.8308 180.154 50.2352V57.0066H177.145ZM183.422 49.4828C184.378 49.4828 185.17 49.1615 185.797 48.5188C186.424 47.8762 186.737 47.0454 186.737 46.0266C186.737 45.0077 186.424 44.1692 185.797 43.5108C185.17 42.8525 184.378 42.5233 183.422 42.5233C182.451 42.5233 181.651 42.8525 181.024 43.5108C180.413 44.1535 180.107 44.9842 180.107 46.0031C180.107 47.0219 180.413 47.8605 181.024 48.5188C181.651 49.1615 182.451 49.4828 183.422 49.4828Z" fill="url(#paint1_linear)"/>
<defs>
<linearGradient id="paint0_linear" x1="15.1465" y1="21.0435" x2="42.051" y2="44.7593" gradientUnits="userSpaceOnUse">
<stop stop-color="#FFCA63"/>
<stop offset="1" stop-color="#FFAC53"/>
</linearGradient>
<linearGradient id="paint1_linear" x1="70.0534" y1="6.21489" x2="193.017" y2="60.2232" gradientUnits="userSpaceOnUse">
<stop stop-color="#FFCA63"/>
<stop offset="1" stop-color="#FFA751"/>
</linearGradient>
</defs>
</svg>
