<svg width="120" height="24" viewBox="0 0 120 24" fill="none" xmlns="http://www.w3.org/2000/svg">
<path d="M23.643 4.93708C22.808 5.30708 21.911 5.55708 20.968 5.67008C21.941 5.08787 22.669 4.17154 23.016 3.09208C22.1019 3.63507 21.1014 4.01727 20.058 4.22208C19.3564 3.47294 18.4271 2.9764 17.4143 2.80955C16.4016 2.6427 15.3621 2.81487 14.4572 3.29933C13.5524 3.78379 12.8328 4.55344 12.4102 5.48878C11.9875 6.42412 11.8855 7.47283 12.12 8.47208C10.2677 8.37907 8.45564 7.89763 6.80144 7.05898C5.14723 6.22034 3.68785 5.04324 2.51801 3.60408C2.11801 4.29408 1.88801 5.09408 1.88801 5.94608C1.88757 6.71307 2.07644 7.46832 2.43789 8.14481C2.79934 8.8213 3.32217 9.39812 3.96001 9.82408C3.22029 9.80054 2.49688 9.60066 1.85001 9.24108V9.30108C1.84994 10.3768 2.22204 11.4195 2.90319 12.2521C3.58434 13.0847 4.53258 13.656 5.58701 13.8691C4.9008 14.0548 4.18135 14.0821 3.48301 13.9491C3.78051 14.8747 4.36001 15.6841 5.14038 16.264C5.92075 16.8439 6.86293 17.1653 7.83501 17.1831C6.18484 18.4785 4.1469 19.1812 2.04901 19.1781C1.67739 19.1782 1.30609 19.1565 0.937012 19.1131C3.06649 20.4823 5.54535 21.2089 8.07701 21.2061C16.647 21.2061 21.332 14.1081 21.332 7.95208C21.332 7.75208 21.327 7.55008 21.318 7.35008C22.2293 6.69105 23.0159 5.87497 23.641 4.94008L23.643 4.93708Z" fill="black"/>
<path d="M68.9471 8.30496C68.937 7.54758 68.7952 6.79773 68.5281 6.08896C68.2964 5.49111 67.9426 4.94816 67.4892 4.49479C67.0359 4.04142 66.4929 3.68761 65.8951 3.45596C65.1954 3.19331 64.4562 3.0513 63.7091 3.03596C62.7471 2.99296 62.4421 2.98096 60.0001 2.98096C57.5581 2.98096 57.2451 2.98096 56.2901 3.03596C55.5432 3.05141 54.8044 3.19343 54.1051 3.45596C53.5071 3.68745 52.9641 4.0412 52.5107 4.49459C52.0573 4.94798 51.7036 5.49102 51.4721 6.08896C51.2089 6.78809 51.0672 7.52707 51.0531 8.27396C51.0101 9.23696 50.9971 9.54196 50.9971 11.984C50.9971 14.426 50.9971 14.738 51.0531 15.694C51.0681 16.442 51.2091 17.18 51.4721 17.881C51.7039 18.4787 52.058 19.0215 52.5115 19.4747C52.965 19.9279 53.5081 20.2815 54.1061 20.513C54.8035 20.7862 55.5424 20.9383 56.2911 20.963C57.2541 21.006 57.5591 21.019 60.0011 21.019C62.4431 21.019 62.7561 21.019 63.7111 20.963C64.4582 20.9482 65.1974 20.8066 65.8971 20.544C66.4948 20.312 67.0376 19.9581 67.4909 19.5048C67.9442 19.0515 68.2982 18.5086 68.5301 17.911C68.7931 17.211 68.9341 16.473 68.9491 15.724C68.9921 14.762 69.0051 14.457 69.0051 12.014C69.0031 9.57196 69.0031 9.26196 68.9471 8.30496ZM59.9941 16.602C57.4401 16.602 55.3711 14.533 55.3711 11.979C55.3711 9.42496 57.4401 7.35596 59.9941 7.35596C61.2202 7.35596 62.396 7.84302 63.263 8.71C64.13 9.57698 64.6171 10.7529 64.6171 11.979C64.6171 13.2051 64.13 14.3809 63.263 15.2479C62.396 16.1149 61.2202 16.602 59.9941 16.602ZM64.8011 8.26296C64.2041 8.26296 63.7231 7.78096 63.7231 7.18496C63.7231 7.04346 63.7509 6.90334 63.8051 6.77262C63.8592 6.64189 63.9386 6.5231 64.0387 6.42305C64.1387 6.32299 64.2575 6.24363 64.3882 6.18948C64.519 6.13533 64.6591 6.10746 64.8006 6.10746C64.9421 6.10746 65.0822 6.13533 65.2129 6.18948C65.3436 6.24363 65.4624 6.32299 65.5625 6.42305C65.6625 6.5231 65.7419 6.64189 65.7961 6.77262C65.8502 6.90334 65.8781 7.04346 65.8781 7.18496C65.8781 7.78096 65.3961 8.26296 64.8011 8.26296Z" fill="black"/>
<path d="M59.994 14.9821C61.6525 14.9821 62.997 13.6376 62.997 11.9791C62.997 10.3206 61.6525 8.97607 59.994 8.97607C58.3355 8.97607 56.991 10.3206 56.991 11.9791C56.991 13.6376 58.3355 14.9821 59.994 14.9821Z" fill="black"/>
<path fill-rule="evenodd" clip-rule="evenodd" d="M97 2.838C97 2.35053 97.1936 1.88303 97.5383 1.53834C97.883 1.19365 98.3505 1 98.838 1H117.16C117.402 0.999608 117.641 1.04687 117.864 1.13907C118.087 1.23127 118.29 1.36661 118.461 1.53734C118.632 1.70807 118.768 1.91083 118.86 2.13401C118.953 2.3572 119 2.59643 119 2.838V21.16C119 21.4016 118.953 21.6409 118.861 21.8642C118.768 22.0875 118.633 22.2904 118.462 22.4613C118.291 22.6322 118.088 22.7678 117.865 22.8602C117.642 22.9526 117.403 23.0001 117.161 23H98.838C98.5965 23 98.3575 22.9524 98.1344 22.86C97.9113 22.7676 97.7087 22.6321 97.538 22.4613C97.3673 22.2905 97.2319 22.0878 97.1396 21.8647C97.0473 21.6416 96.9999 21.4025 97 21.161V2.838ZM105.708 9.388H108.687V10.884C109.117 10.024 110.217 9.25 111.87 9.25C115.039 9.25 115.79 10.963 115.79 14.106V19.928H112.583V14.822C112.583 13.032 112.153 12.022 111.061 12.022C109.546 12.022 108.916 13.111 108.916 14.822V19.928H105.708V9.388ZM100.208 19.791H103.416V9.25H100.208V19.79V19.791ZM103.875 5.812C103.881 6.08668 103.832 6.35979 103.731 6.61532C103.63 6.87084 103.479 7.10364 103.287 7.30003C103.095 7.49643 102.866 7.65248 102.612 7.75901C102.359 7.86554 102.087 7.92042 101.813 7.92042C101.538 7.92042 101.266 7.86554 101.013 7.75901C100.759 7.65248 100.53 7.49643 100.338 7.30003C100.146 7.10364 99.9947 6.87084 99.8938 6.61532C99.7928 6.35979 99.744 6.08668 99.75 5.812C99.7619 5.27286 99.9844 4.75979 100.37 4.38269C100.755 4.00558 101.273 3.79442 101.813 3.79442C102.352 3.79442 102.87 4.00558 103.255 4.38269C103.641 4.75979 103.863 5.27286 103.875 5.812Z" fill="black"/>
</svg>
